<?xml version="1.0" encoding="UTF-8" standalone="no"?>
<!DOCTYPE svg PUBLIC "-//W3C//DTD SVG 1.1//EN" "http://www.w3.org/Graphics/SVG/1.1/DTD/svg11.dtd">
<svg xmlns="http://www.w3.org/2000/svg" version="1.1" viewBox="0.00 0.00 527.00 528.00">
<g stroke-width="2.00" fill="none" stroke-linecap="butt">
<path stroke="#e7a424" vector-effect="non-scaling-stroke" d="
  M 267.01 115.27
  Q 267.30 115.29 267.36 115.01
  L 281.03 51.30
  A 0.49 0.49 0.0 0 0 280.59 50.71
  Q 258.72 48.65 236.98 50.65
  A 0.63 0.62 86.2 0 0 236.41 51.31
  L 240.09 115.49
  A 0.47 0.46 -5.7 0 0 240.62 115.92
  Q 252.81 114.15 267.01 115.27"
/>
<path stroke="#edb2a3" vector-effect="non-scaling-stroke" d="
  M 299.96 64.93
  A 0.40 0.40 0.0 0 1 299.63 64.46
  L 300.58 59.01
  A 0.40 0.40 0.0 0 1 301.05 58.68
  L 306.12 59.61
  A 0.40 0.40 0.0 0 0 306.59 59.28
  L 307.59 53.56
  A 0.40 0.40 0.0 0 0 307.27 53.10
  L 293.69 50.73
  A 0.40 0.40 0.0 0 0 293.22 51.06
  L 287.77 82.89
  A 0.40 0.40 0.0 0 0 288.09 83.35
  L 295.79 84.68
  A 0.40 0.40 0.0 0 0 296.26 84.35
  L 298.41 71.46
  A 0.40 0.40 0.0 0 1 298.87 71.13
  L 303.39 71.84
  A 0.40 0.40 0.0 0 0 303.85 71.51
  L 304.75 66.13
  A 0.40 0.40 0.0 0 0 304.42 65.66
  L 299.96 64.93"
/>
<path stroke="#edb2a3" vector-effect="non-scaling-stroke" d="
  M 319.6779 56.6495
  A 0.45 0.45 0.0 0 0 319.3511 56.1035
  L 311.9218 54.2374
  A 0.45 0.45 0.0 0 0 311.3758 54.5642
  L 303.5021 85.9105
  A 0.45 0.45 0.0 0 0 303.8289 86.4565
  L 311.2582 88.3226
  A 0.45 0.45 0.0 0 0 311.8042 87.9958
  L 319.6779 56.6495"
/>
<path stroke="#edb2a3" vector-effect="non-scaling-stroke" d="
  M 324.41 91.87
  L 324.27 92.15
  Q 323.96 92.76 324.61 92.99
  L 331.03 95.23
  Q 331.73 95.47 331.97 94.78
  Q 334.77 86.69 337.77 77.82
  C 338.78 74.82 339.48 71.27 336.78 68.93
  C 333.37 65.98 325.21 63.26 321.99 68.00
  Q 320.69 69.91 319.80 72.27
  Q 319.32 73.56 320.62 74.00
  L 325.76 75.71
  Q 326.83 76.07 327.21 75.01
  L 328.58 71.16
  A 0.88 0.87 88.6 0 1 329.09 70.62
  Q 329.75 70.34 330.29 70.80
  Q 330.83 71.25 330.77 71.96
  Q 330.60 74.14 329.41 76.12
  A 1.12 1.10 -76.4 0 1 328.53 76.67
  Q 324.77 76.97 320.91 77.26
  C 317.28 77.53 316.04 83.12 315.46 85.89
  C 314.55 90.30 320.30 93.58 323.78 91.31
  Q 325.15 90.42 324.41 91.87"
/>
<path stroke="#edb2a3" vector-effect="non-scaling-stroke" d="
  M 352.27 81.02
  L 351.20 83.33
  Q 350.83 84.13 351.62 84.49
  L 356.69 86.86
  Q 357.39 87.19 357.80 86.54
  Q 360.87 81.61 357.45 78.04
  C 354.88 75.35 347.84 71.72 344.43 75.32
  C 341.98 77.90 340.16 82.26 342.24 85.67
  Q 343.87 88.34 345.98 91.15
  Q 346.70 92.11 346.60 93.15
  Q 346.39 95.57 344.72 96.27
  Q 343.12 96.95 343.10 95.21
  Q 343.07 93.61 344.12 92.36
  Q 345.02 91.29 343.77 90.67
  L 338.99 88.26
  Q 337.94 87.74 337.53 88.83
  Q 336.94 90.40 336.40 91.92
  C 334.53 97.22 341.02 100.97 345.27 101.97
  C 350.25 103.15 352.87 99.42 354.17 95.34
  C 356.29 88.72 346.53 85.70 349.75 80.20
  A 1.37 1.37 0.0 0 1 351.45 79.62
  L 351.78 79.75
  A 0.94 0.93 -66.4 0 1 352.27 81.02"
/>
<path stroke="#edb2a3" vector-effect="non-scaling-stroke" d="
  M 372.39 87.29
  A 0.30 0.30 0.0 0 1 372.11 86.83
  L 375.25 81.83
  Q 375.71 81.09 374.97 80.63
  L 369.69 77.30
  Q 368.74 76.70 368.14 77.66
  L 351.55 104.30
  A 0.57 0.57 0.0 0 0 351.73 105.09
  L 357.83 108.86
  Q 358.26 109.13 358.53 108.70
  Q 363.95 99.92 369.45 91.16
  Q 370.10 90.13 371.35 90.45
  Q 371.97 90.61 371.80 92.08
  A 0.75 0.71 66.4 0 1 371.69 92.39
  L 360.74 110.03
  Q 360.43 110.53 360.94 110.84
  L 367.00 114.57
  Q 367.43 114.83 367.70 114.40
  Q 372.93 106.07 378.79 96.55
  Q 380.03 94.52 379.91 92.62
  C 379.69 89.10 375.63 86.96 372.39 87.29"
/>
<path stroke="#e7a424" vector-effect="non-scaling-stroke" d="
  M 178.61 138.02
  A 0.54 0.54 0.0 0 0 178.75 137.24
  L 140.19 85.49
  Q 139.87 85.06 139.43 85.37
  Q 121.18 98.28 105.93 113.79
  A 0.38 0.38 0.0 0 0 105.93 114.31
  L 150.79 160.96
  A 0.53 0.53 0.0 0 0 151.56 160.95
  Q 163.59 147.67 178.61 138.02"
/>
<path stroke="#edb2a3" vector-effect="non-scaling-stroke" d="
  M 412.15 125.89
  Q 404.70 133.58 397.27 140.53
  Q 396.93 140.84 397.26 141.17
  L 402.02 145.91
  Q 402.32 146.20 402.62 145.91
  L 425.47 123.64
  Q 425.95 123.17 425.49 122.68
  L 418.60 115.54
  Q 418.13 115.05 417.60 115.46
  L 407.17 123.42
  Q 405.67 124.56 406.82 123.06
  L 414.81 112.61
  Q 415.15 112.17 414.77 111.77
  L 408.00 104.66
  Q 407.41 104.04 406.80 104.63
  L 383.88 127.06
  Q 383.63 127.31 383.88 127.55
  L 388.70 132.32
  A 0.40 0.40 0.0 0 0 389.26 132.33
  L 404.07 117.87
  Q 404.10 117.84 404.07 117.82
  Q 402.92 116.81 404.12 117.87
  Q 404.16 117.91 404.13 117.96
  Q 398.28 125.70 391.63 134.26
  Q 391.22 134.79 391.66 135.29
  L 394.25 138.25
  Q 394.76 138.83 395.37 138.37
  L 412.13 125.87
  Q 412.28 125.76 412.15 125.89"
/>
<path stroke="#edb2a3" vector-effect="non-scaling-stroke" d="
  M 392.69 109.87
  A 4.35 4.35 0.0 0 0 388.34 105.52
  A 4.35 4.35 0.0 0 0 383.99 109.87
  A 4.35 4.35 0.0 0 0 388.34 114.22
  A 4.35 4.35 0.0 0 0 392.69 109.87"
/>
<path stroke="#e7a424" vector-effect="non-scaling-stroke" d="
  M 387.13 257.85
  A 129.19 129.19 0.0 0 0 257.94 128.66
  A 129.19 129.19 0.0 0 0 128.75 257.85
  A 129.19 129.19 0.0 0 0 257.94 387.04
  A 129.19 129.19 0.0 0 0 387.13 257.85"
/>
<path stroke="#edb2a3" vector-effect="non-scaling-stroke" d="
  M 418.67 146.25
  L 424.31 153.71
  Q 424.65 154.15 425.11 153.85
  C 429.69 150.87 434.38 147.14 432.25 141.02
  C 430.30 135.42 424.36 131.05 418.49 135.17
  Q 414.01 138.32 409.16 142.22
  Q 403.95 146.41 406.59 152.33
  C 408.42 156.45 412.53 160.31 417.32 158.84
  Q 419.70 158.10 422.52 156.00
  Q 423.36 155.37 422.72 154.54
  L 419.02 149.73
  Q 418.44 148.98 417.72 149.59
  Q 416.01 151.05 414.10 152.25
  A 1.99 1.88 -49.4 0 1 412.40 152.43
  Q 411.78 152.20 411.71 151.22
  A 0.92 0.90 68.8 0 1 412.05 150.43
  L 417.54 146.11
  Q 418.18 145.60 418.67 146.25"
/>
<path stroke="#edb2a3" vector-effect="non-scaling-stroke" d="
  M 443.5800 146.9949
  A 0.42 0.42 0.0 0 0 443.0010 146.8623
  L 415.6221 164.0371
  A 0.42 0.42 0.0 0 0 415.4895 164.6161
  L 419.5600 171.1051
  A 0.42 0.42 0.0 0 0 420.1390 171.2377
  L 447.5179 154.0629
  A 0.42 0.42 0.0 0 0 447.6505 153.4839
  L 443.5800 146.9949"
/>
<path stroke="#edb2a3" vector-effect="non-scaling-stroke" d="
  M 449.1132 167.6931
  A 7.95 7.95 0.0 0 0 438.4144 164.2375
  L 427.7140 169.7131
  A 7.95 7.95 0.0 0 0 424.2584 180.4119
  L 425.6068 183.0469
  A 7.95 7.95 0.0 0 0 436.3056 186.5025
  L 447.0060 181.0269
  A 7.95 7.95 0.0 0 0 450.4616 170.3281
  L 449.1132 167.6931"
/>
<path stroke="#edb2a3" vector-effect="non-scaling-stroke" d="
  M 458.30 191.76
  C 459.79 187.46 456.80 181.46 451.44 183.39
  Q 443.77 186.15 435.28 189.36
  C 429.93 191.38 430.61 197.96 435.30 200.12
  Q 435.97 200.43 435.36 200.85
  Q 435.11 201.02 434.82 201.09
  Q 434.16 201.26 434.40 201.90
  L 436.90 208.50
  Q 437.09 208.98 437.57 208.80
  L 466.87 197.90
  Q 468.10 197.44 467.64 196.22
  L 465.65 190.92
  Q 465.19 189.71 463.99 190.17
  L 458.71 192.16
  A 0.32 0.32 0.0 0 1 458.30 191.76"
/>
<path stroke="#e7a424" vector-effect="non-scaling-stroke" d="
  M 115.98 240.74
  Q 116.24 240.73 116.27 240.47
  Q 117.48 227.35 121.44 214.62
  A 0.54 0.54 0.0 0 0 121.05 213.93
  L 58.46 199.16
  Q 58.00 199.06 57.88 199.51
  Q 52.12 220.50 50.35 242.15
  Q 50.27 243.15 51.27 243.12
  L 115.98 240.74"
/>
<path stroke="#edb2a3" vector-effect="non-scaling-stroke" d="
  M 449.55 217.03
  Q 457.23 213.67 465.16 210.58
  Q 465.44 210.47 465.37 210.18
  L 463.68 203.43
  A 0.28 0.27 -19.9 0 0 463.30 203.26
  L 440.47 214.09
  Q 439.02 214.78 438.66 213.22
  L 438.36 211.97
  Q 438.26 211.53 437.82 211.64
  L 434.53 212.49
  Q 434.02 212.63 434.13 213.14
  C 435.34 218.88 436.25 225.55 443.09 224.73
  Q 456.50 223.14 467.95 221.62
  A 0.26 0.26 0.0 0 0 468.17 221.30
  L 466.55 214.59
  Q 466.49 214.31 466.21 214.36
  L 449.63 217.29
  Q 448.50 217.49 449.55 217.03"
/>
<path stroke="#edb2a3" vector-effect="non-scaling-stroke" d="
  M 464.96 236.63
  A 4.36 4.36 0.0 0 0 460.60 232.27
  A 4.36 4.36 0.0 0 0 456.24 236.63
  A 4.36 4.36 0.0 0 0 460.60 240.99
  A 4.36 4.36 0.0 0 0 464.96 236.63"
/>
<path stroke="#edb2a3" vector-effect="non-scaling-stroke" d="
  M 451.73 260.54
  A 0.31 0.31 0.0 0 1 452.03 260.23
  L 458.67 259.92
  A 0.31 0.31 0.0 0 1 458.99 260.23
  L 459.00 265.02
  A 0.31 0.31 0.0 0 0 459.32 265.33
  L 465.16 265.23
  A 0.31 0.31 0.0 0 0 465.46 264.90
  L 465.23 260.04
  A 0.31 0.31 0.0 0 1 465.54 259.71
  L 471.27 259.76
  A 0.31 0.31 0.0 0 1 471.58 260.06
  L 471.78 265.12
  A 0.31 0.31 0.0 0 0 472.10 265.42
  L 478.03 265.23
  A 0.31 0.31 0.0 0 0 478.33 264.91
  L 478.03 251.15
  A 0.31 0.31 0.0 0 0 477.71 250.85
  L 445.06 251.76
  A 0.31 0.31 0.0 0 0 444.76 252.08
  L 445.23 266.42
  A 0.31 0.31 0.0 0 0 445.56 266.72
  L 451.45 266.41
  A 0.31 0.31 0.0 0 0 451.74 266.10
  L 451.73 260.54"
/>
<path stroke="#edb2a3" vector-effect="non-scaling-stroke" d="
  M 70.24 272.74
  Q 62.76 274.43 54.42 275.83
  A 0.24 0.23 -7.2 0 0 54.23 276.07
  L 54.61 283.29
  Q 54.62 283.44 54.76 283.41
  L 79.82 277.23
  A 0.91 0.91 0.0 0 1 80.94 278.08
  L 81.00 279.56
  A 0.76 0.76 0.0 0 0 81.81 280.29
  L 84.77 280.10
  Q 85.42 280.06 85.43 279.40
  Q 85.46 274.97 84.88 271.58
  Q 84.10 267.02 79.82 266.56
  Q 67.73 265.24 53.91 264.50
  Q 53.67 264.49 53.68 264.73
  L 54.06 271.77
  Q 54.07 271.96 54.26 271.97
  L 70.19 272.28
  Q 72.14 272.31 70.24 272.74"
/>
<path stroke="#edb2a3" vector-effect="non-scaling-stroke" d="
  M 469.97 281.05
  L 470.98 281.15
  Q 471.41 281.19 471.45 280.76
  L 472.12 273.28
  A 0.45 0.45 0.0 0 0 471.71 272.79
  L 445.57 270.52
  Q 445.10 270.48 445.07 270.94
  L 444.45 278.30
  Q 444.42 278.68 444.80 278.72
  L 465.73 280.57
  Q 466.67 280.65 466.94 281.57
  Q 467.03 281.88 466.95 282.18
  Q 466.68 283.15 465.68 283.07
  L 444.73 281.31
  A 0.57 0.57 0.0 0 0 444.12 281.83
  L 443.52 289.02
  Q 443.48 289.41 443.88 289.45
  Q 453.31 290.39 465.60 291.31
  C 470.14 291.66 472.20 288.12 471.24 283.75
  C 471.05 282.88 470.21 282.23 469.70 281.52
  Q 469.31 280.98 469.97 281.05"
/>
<path stroke="#edb2a3" vector-effect="non-scaling-stroke" d="
  M 62.07 297.00
  Q 70.37 296.01 79.02 294.66
  C 84.36 293.83 82.56 287.54 82.11 284.09
  Q 82.02 283.37 81.31 283.46
  L 78.27 283.85
  Q 77.71 283.92 77.71 284.49
  L 77.72 286.03
  A 0.58 0.57 86.0 0 1 77.23 286.60
  L 60.55 288.94
  A 0.39 0.38 -1.9 0 1 60.11 288.54
  L 60.17 287.44
  Q 60.21 286.69 59.47 286.80
  L 56.44 287.23
  Q 55.85 287.31 55.90 287.91
  L 56.00 288.97
  Q 56.06 289.56 55.47 289.64
  L 52.77 289.99
  Q 51.89 290.11 52.01 290.98
  L 52.90 297.47
  Q 53.03 298.38 53.93 298.23
  L 56.47 297.82
  Q 57.22 297.70 57.32 298.45
  L 57.39 299.02
  Q 57.47 299.57 58.02 299.48
  L 61.52 298.92
  Q 61.91 298.86 61.80 298.48
  L 61.59 297.73
  Q 61.40 297.08 62.07 297.00"
/>
<path stroke="#edb2a3" vector-effect="non-scaling-stroke" d="
  M 462.50 305.97
  L 458.55 305.37
  Q 457.75 305.25 457.59 306.04
  L 456.43 311.77
  Q 456.18 313.03 457.45 313.15
  Q 461.06 313.47 463.17 312.90
  C 467.84 311.63 469.49 305.06 468.63 300.91
  C 467.89 297.33 465.50 295.78 461.97 295.02
  Q 458.28 294.23 454.47 293.45
  C 447.39 292.01 442.30 292.35 440.87 300.63
  Q 439.84 306.57 444.15 309.62
  C 445.74 310.75 447.72 310.89 449.53 311.52
  Q 450.56 311.88 450.77 310.81
  L 451.87 305.28
  Q 452.04 304.43 451.19 304.24
  L 446.52 303.20
  Q 445.61 303.00 445.52 302.07
  Q 445.47 301.60 445.92 300.98
  A 1.32 1.32 0.0 0 1 447.25 300.47
  L 463.21 303.72
  A 0.90 0.89 -79.2 0 1 463.91 304.76
  L 463.86 305.01
  Q 463.64 306.15 462.50 305.97"
/>
<path stroke="#edb2a3" vector-effect="non-scaling-stroke" d="
  M 84.4710 298.5921
  A 0.36 0.36 0.0 0 0 84.0435 298.3156
  L 58.2105 303.8537
  A 0.36 0.36 0.0 0 0 57.9340 304.2812
  L 59.5690 311.9079
  A 0.36 0.36 0.0 0 0 59.9965 312.1844
  L 85.8295 306.6463
  A 0.36 0.36 0.0 0 0 86.1060 306.2188
  L 84.4710 298.5921"
/>
<path stroke="#edb2a3" vector-effect="non-scaling-stroke" d="
  M 56.3032 304.6821
  A 0.41 0.41 0.0 0 0 55.8180 304.3646
  L 52.4115 305.0763
  A 0.41 0.41 0.0 0 0 52.0940 305.5614
  L 53.6768 313.1379
  A 0.41 0.41 0.0 0 0 54.1620 313.4554
  L 57.5685 312.7437
  A 0.41 0.41 0.0 0 0 57.8860 312.2586
  L 56.3032 304.6821"
/>
<path stroke="#edb2a3" vector-effect="non-scaling-stroke" d="
  M 80.13 318.87
  Q 72.56 322.16 63.87 325.66
  Q 63.32 325.89 63.49 326.45
  L 65.40 332.64
  A 0.35 0.34 68.2 0 0 65.88 332.85
  L 89.93 321.42
  A 0.59 0.59 0.0 0 0 90.24 320.72
  L 87.40 311.45
  Q 87.23 310.89 86.66 310.98
  L 60.48 314.93
  Q 60.01 315.00 60.15 315.45
  L 61.99 321.52
  Q 62.16 322.11 62.77 321.99
  L 80.02 318.51
  Q 81.77 318.15 80.13 318.87"
/>
<path stroke="#edb2a3" vector-effect="non-scaling-stroke" d="
  M 463.1698 327.4006
  A 7.97 7.97 0.0 0 0 458.1758 317.2960
  L 446.6766 313.4038
  A 7.97 7.97 0.0 0 0 436.5721 318.3978
  L 435.6102 321.2394
  A 7.97 7.97 0.0 0 0 440.6042 331.3440
  L 452.1034 335.2362
  A 7.97 7.97 0.0 0 0 462.2079 330.2422
  L 463.1698 327.4006"
/>
<path stroke="#edb2a3" vector-effect="non-scaling-stroke" d="
  M 396.58 352.46
  A 0.40 0.40 0.0 0 1 396.53 353.03
  L 325.72 412.09
  A 0.40 0.40 0.0 0 1 325.15 412.04
  L 302.74 385.17
  A 0.40 0.40 0.0 0 0 302.32 385.05
  L 294.32 387.47
  A 0.40 0.40 0.0 0 0 294.13 388.11
  L 321.50 420.92
  A 0.40 0.40 0.0 0 0 321.77 421.07
  L 327.38 421.59
  A 0.40 0.40 0.0 0 0 327.68 421.50
  L 405.44 356.65
  A 0.40 0.40 0.0 0 0 405.58 356.37
  L 406.07 350.75
  A 0.40 0.40 0.0 0 0 405.97 350.46
  L 378.62 317.64
  A 0.40 0.40 0.0 0 0 377.95 317.72
  L 374.12 325.15
  A 0.40 0.40 0.0 0 0 374.17 325.59
  L 396.58 352.46"
/>
<path stroke="#edb2a3" vector-effect="non-scaling-stroke" d="
  M 92.2749 327.1149
  A 0.44 0.44 0.0 0 0 91.7047 326.8658
  L 67.2738 336.4402
  A 0.44 0.44 0.0 0 0 67.0247 337.0104
  L 69.8051 344.1051
  A 0.44 0.44 0.0 0 0 70.3753 344.3542
  L 94.8062 334.7798
  A 0.44 0.44 0.0 0 0 95.0553 334.2096
  L 92.2749 327.1149"
/>
<path stroke="#edb2a3" vector-effect="non-scaling-stroke" d="
  M 429.57 340.62
  L 429.12 340.35
  Q 428.50 339.99 428.21 340.64
  L 425.32 347.03
  Q 425.07 347.60 425.64 347.86
  L 449.29 358.62
  Q 449.83 358.86 450.08 358.32
  L 453.09 351.78
  A 0.47 0.47 0.0 0 0 452.86 351.15
  L 433.23 342.20
  A 0.85 0.83 16.2 0 1 432.74 341.33
  Q 432.79 340.93 433.02 340.65
  Q 433.79 339.72 434.88 340.21
  L 453.71 348.72
  Q 454.33 349.00 454.61 348.38
  L 457.48 342.02
  Q 457.73 341.47 457.18 341.22
  Q 447.92 337.02 437.81 332.48
  Q 432.81 330.23 430.21 335.09
  Q 428.90 337.54 430.08 340.16
  Q 430.56 341.21 429.57 340.62"
/>
<path stroke="#edb2a3" vector-effect="non-scaling-stroke" d="
  M 65.3988 337.4812
  A 0.28 0.28 0.0 0 0 65.0365 337.3214
  L 61.5497 338.6739
  A 0.28 0.28 0.0 0 0 61.3899 339.0362
  L 64.2612 346.4388
  A 0.28 0.28 0.0 0 0 64.6235 346.5986
  L 68.1103 345.2461
  A 0.28 0.28 0.0 0 0 68.2701 344.8838
  L 65.3988 337.4812"
/>
<path stroke="#edb2a3" vector-effect="non-scaling-stroke" d="
  M 73.04 351.49
  L 70.31 352.82
  Q 69.63 353.16 69.96 353.84
  L 72.89 359.99
  Q 73.24 360.73 73.96 360.32
  L 76.05 359.13
  Q 76.43 358.92 76.83 359.06
  Q 77.31 359.24 77.53 359.73
  Q 77.77 360.30 78.34 360.06
  L 81.19 358.84
  A 0.59 0.59 0.0 0 0 81.44 357.97
  Q 81.24 357.67 81.19 357.31
  A 0.78 0.78 0.0 0 1 81.64 356.47
  Q 89.39 352.94 96.91 349.14
  C 101.72 346.71 97.94 341.38 96.65 338.24
  Q 96.38 337.56 95.71 337.84
  L 92.97 338.99
  Q 92.13 339.34 92.60 340.13
  Q 92.91 340.65 92.96 341.25
  A 0.97 0.96 -15.4 0 1 92.42 342.19
  L 77.79 349.23
  Q 77.37 349.43 77.11 349.05
  Q 76.86 348.68 76.74 348.23
  Q 76.55 347.48 75.83 347.78
  L 72.99 348.97
  Q 72.37 349.23 72.71 349.80
  L 73.26 350.74
  Q 73.55 351.24 73.04 351.49"
/>
<path stroke="#edb2a3" vector-effect="non-scaling-stroke" d="
  M 371.9740 337.9603
  A 0.50 0.50 0.0 0 0 371.2698 337.8962
  L 358.0093 348.9445
  A 0.50 0.50 0.0 0 0 357.9452 349.6487
  L 367.0860 360.6197
  A 0.50 0.50 0.0 0 0 367.7902 360.6838
  L 381.0507 349.6355
  A 0.50 0.50 0.0 0 0 381.1148 348.9313
  L 371.9740 337.9603"
/>
<path stroke="#edb2a3" vector-effect="non-scaling-stroke" d="
  M 440.40 369.60
  L 441.97 370.79
  Q 442.50 371.20 442.84 370.62
  L 446.43 364.58
  Q 446.75 364.02 446.20 363.70
  L 423.56 350.45
  Q 423.28 350.28 423.11 350.56
  L 419.20 357.23
  Q 419.08 357.44 419.29 357.56
  Q 423.78 360.20 428.34 362.81
  C 431.01 364.35 435.40 366.21 432.40 370.17
  Q 432.03 370.67 432.57 370.99
  L 440.13 375.38
  Q 440.79 375.76 440.92 375.00
  Q 441.40 372.16 440.16 369.80
  Q 439.81 369.15 440.40 369.60"
/>
<path stroke="#edb2a3" vector-effect="non-scaling-stroke" d="
  M 87.07 367.38
  Q 87.37 366.87 87.86 366.55
  L 90.52 364.85
  Q 91.32 364.34 90.83 363.52
  L 87.79 358.43
  Q 87.29 357.59 86.49 358.14
  Q 84.62 359.44 83.11 360.98
  C 77.49 366.73 85.84 379.62 93.64 375.40
  Q 98.89 372.55 104.30 369.10
  Q 107.20 367.25 108.20 365.03
  C 109.91 361.25 107.49 356.00 104.42 353.60
  C 100.38 350.44 97.03 352.28 92.78 354.42
  Q 92.25 354.69 92.56 355.19
  L 95.74 360.51
  A 0.73 0.73 0.0 0 0 96.81 360.72
  Q 98.83 359.16 101.20 358.28
  Q 102.24 357.89 102.68 358.91
  Q 102.74 359.06 102.74 359.22
  Q 102.76 360.43 101.72 361.05
  Q 95.20 364.99 88.73 368.80
  A 1.50 1.45 -37.1 0 1 86.93 368.58
  Q 86.58 368.23 87.07 367.38"
/>
<path stroke="#edb2a3" vector-effect="non-scaling-stroke" d="
  M 411.13 372.37
  L 410.17 371.70
  Q 409.87 371.49 409.66 371.78
  L 405.51 377.55
  Q 405.17 378.02 405.64 378.37
  Q 412.68 383.52 419.35 388.22
  Q 423.40 391.08 425.04 391.30
  C 429.90 391.96 433.86 386.64 435.04 382.55
  C 436.36 378.00 433.62 375.52 430.33 373.14
  Q 429.63 372.63 429.12 373.33
  L 425.76 377.92
  Q 425.04 378.90 426.02 379.63
  L 429.31 382.09
  A 0.80 0.79 20.5 0 1 429.63 382.78
  Q 429.59 383.39 429.10 383.72
  Q 428.48 384.13 427.78 383.87
  Q 425.74 383.10 424.28 381.37
  Q 423.85 380.85 424.01 380.21
  Q 424.90 376.62 425.66 372.82
  Q 426.11 370.59 424.34 369.02
  C 421.93 366.88 417.82 363.34 414.60 365.27
  Q 410.39 367.80 411.53 372.09
  Q 411.71 372.78 411.13 372.37"
/>
<path stroke="#edb2a3" vector-effect="non-scaling-stroke" d="
  M 112.59 376.24
  A 0.49 0.49 0.0 0 1 112.66 375.58
  L 116.47 372.23
  A 0.49 0.49 0.0 0 0 116.53 371.57
  L 111.73 365.30
  A 0.49 0.49 0.0 0 0 110.99 365.25
  L 88.22 388.54
  A 0.49 0.49 0.0 0 0 88.18 389.18
  L 95.30 398.39
  A 0.49 0.49 0.0 0 0 95.93 398.52
  L 124.23 382.41
  A 0.49 0.49 0.0 0 0 124.37 381.68
  L 119.53 375.45
  A 0.49 0.49 0.0 0 0 118.87 375.35
  L 114.66 378.17
  A 0.49 0.49 0.0 0 1 114.00 378.07
  L 112.59 376.24"
/>
<path stroke="#edb2a3" vector-effect="non-scaling-stroke" d="
  M 328.5989 374.0785
  A 0.47 0.47 0.0 0 0 327.9370 374.0182
  L 314.6149 385.1177
  A 0.47 0.47 0.0 0 0 314.5547 385.7797
  L 323.7211 396.7815
  A 0.47 0.47 0.0 0 0 324.3830 396.8418
  L 337.7051 385.7423
  A 0.47 0.47 0.0 0 0 337.7653 385.0803
  L 328.5989 374.0785"
/>
<path stroke="#edb2a3" vector-effect="non-scaling-stroke" d="
  M 399.25 390.72
  L 397.29 388.64
  A 1.13 1.12 29.2 0 1 397.01 387.66
  Q 397.16 386.89 397.93 386.55
  Q 398.50 386.28 399.01 386.66
  Q 399.25 386.85 399.55 386.79
  A 1.91 1.41 -67.5 0 0 400.48 386.23
  L 404.59 381.70
  Q 405.03 381.21 404.54 380.78
  Q 401.51 378.11 398.13 380.08
  C 393.73 382.64 386.96 390.42 392.59 395.55
  Q 401.39 403.56 410.15 411.75
  Q 410.71 412.27 411.22 411.71
  L 415.66 406.89
  Q 416.06 406.46 415.64 406.04
  Q 415.29 405.69 415.10 405.26
  A 0.38 0.38 0.0 0 1 415.44 404.73
  Q 419.62 404.71 421.38 400.85
  C 422.70 397.94 420.38 395.26 418.33 393.37
  Q 414.16 389.53 410.28 386.09
  C 405.68 382.02 400.94 385.55 399.88 390.54
  Q 399.74 391.24 399.25 390.72"
/>
<path stroke="#edb2a3" vector-effect="non-scaling-stroke" d="
  M 121.38 399.48
  A 4.35 4.35 0.0 0 0 117.03 395.13
  A 4.35 4.35 0.0 0 0 112.68 399.48
  A 4.35 4.35 0.0 0 0 117.03 403.83
  A 4.35 4.35 0.0 0 0 121.38 399.48"
/>
<path stroke="#edb2a3" vector-effect="non-scaling-stroke" d="
  M 390.59 411.60
  L 383.54 417.61
  Q 383.06 418.02 383.44 418.53
  Q 385.72 421.63 388.55 423.94
  C 392.78 427.39 398.46 424.89 401.51 421.03
  Q 405.45 416.04 401.75 411.09
  Q 398.00 406.07 393.49 401.42
  C 389.21 397.00 384.19 398.77 380.41 402.44
  C 375.66 407.05 377.35 411.51 380.89 415.86
  Q 381.73 416.89 382.74 416.02
  L 386.87 412.42
  Q 387.72 411.68 387.00 410.80
  L 384.23 407.41
  Q 383.41 406.42 384.23 405.43
  Q 384.44 405.19 384.77 405.09
  Q 385.68 404.85 386.29 405.56
  L 390.67 410.60
  Q 391.13 411.14 390.59 411.60"
/>
<path stroke="#edb2a3" vector-effect="non-scaling-stroke" d="
  M 141.24 415.65
  A 0.64 0.63 39.0 0 1 140.34 415.74
  L 132.89 409.63
  Q 132.53 409.34 132.22 409.69
  Q 129.06 413.19 127.49 416.38
  C 124.86 421.74 129.68 427.03 134.47 428.88
  C 137.57 430.08 140.59 429.05 142.74 426.64
  Q 146.69 422.23 150.42 417.40
  C 154.47 412.15 152.09 407.27 147.37 403.94
  C 143.95 401.54 139.30 401.43 136.43 404.65
  Q 135.35 405.87 134.22 407.14
  Q 133.59 407.85 134.32 408.46
  L 138.92 412.33
  Q 139.98 413.22 140.58 411.97
  Q 141.09 410.92 143.47 408.66
  Q 144.20 407.97 145.16 408.30
  Q 145.77 408.51 145.71 409.57
  A 1.77 1.76 -23.9 0 1 145.31 410.60
  L 141.24 415.65"
/>
<path stroke="#edb2a3" vector-effect="non-scaling-stroke" d="
  M 157.14 423.33
  Q 153.24 430.98 148.85 439.14
  A 0.60 0.59 -59.0 0 0 149.04 439.92
  L 154.33 443.43
  Q 154.81 443.75 155.05 443.23
  L 166.24 419.28
  Q 166.46 418.80 166.02 418.50
  L 157.89 413.14
  A 0.66 0.66 0.0 0 0 157.04 413.25
  L 139.45 432.94
  Q 139.06 433.36 139.54 433.68
  L 144.74 437.08
  A 0.73 0.72 -53.4 0 0 145.70 436.93
  L 156.88 423.16
  Q 157.81 422.01 157.14 423.33"
/>
<path stroke="#edb2a3" vector-effect="non-scaling-stroke" d="
  M 178.2895 425.5730
  A 0.35 0.35 0.0 0 0 178.1539 425.0969
  L 171.3036 421.2840
  A 0.35 0.35 0.0 0 0 170.8275 421.4197
  L 157.9105 444.6270
  A 0.35 0.35 0.0 0 0 158.0461 445.1031
  L 164.8964 448.9160
  A 0.35 0.35 0.0 0 0 165.3725 448.7803
  L 178.2895 425.5730"
/>
<path stroke="#edb2a3" vector-effect="non-scaling-stroke" d="
  M 359.39 443.62
  L 366.44 452.64
  Q 366.64 452.89 366.92 452.74
  L 373.52 449.27
  A 0.17 0.16 54.4 0 0 373.56 449.01
  Q 367.08 442.28 360.21 435.36
  C 356.90 432.03 355.09 427.12 352.74 423.10
  Q 352.58 422.81 352.28 422.96
  L 346.00 426.32
  Q 345.66 426.50 345.83 426.84
  C 348.03 431.32 351.06 435.54 352.04 440.57
  Q 353.81 449.69 355.74 458.50
  A 0.18 0.18 0.0 0 0 356.00 458.62
  L 362.59 455.04
  Q 362.82 454.92 362.74 454.67
  L 359.17 443.74
  Q 358.95 443.06 359.39 443.62"
/>
<path stroke="#edb2a3" vector-effect="non-scaling-stroke" d="
  M 375.49 430.80
  A 4.35 4.35 0.0 0 0 371.14 426.45
  A 4.35 4.35 0.0 0 0 366.79 430.80
  A 4.35 4.35 0.0 0 0 371.14 435.15
  A 4.35 4.35 0.0 0 0 375.49 430.80"
/>
<path stroke="#edb2a3" vector-effect="non-scaling-stroke" d="
  M 170.99 452.25
  L 169.78 455.06
  Q 169.54 455.61 170.08 455.87
  L 176.34 458.79
  Q 177.03 459.11 177.33 458.41
  L 178.46 455.80
  Q 178.64 455.38 179.09 455.45
  L 180.01 455.59
  Q 180.62 455.69 180.87 455.12
  L 181.90 452.79
  Q 182.19 452.12 181.53 451.80
  L 181.24 451.66
  Q 180.59 451.35 180.90 450.70
  Q 184.49 443.08 187.83 435.79
  C 190.41 430.17 184.49 428.61 180.77 426.85
  A 0.65 0.65 0.0 0 0 179.90 427.16
  L 178.55 430.05
  Q 178.26 430.66 178.88 430.92
  L 179.86 431.33
  A 0.82 0.82 0.0 0 1 180.28 432.43
  L 173.38 447.22
  Q 173.07 447.90 172.41 447.53
  L 171.77 447.17
  Q 171.10 446.80 170.79 447.49
  L 169.55 450.18
  Q 169.29 450.75 169.86 451.02
  L 170.66 451.39
  Q 171.24 451.66 170.99 452.25"
/>
<path stroke="#edb2a3" vector-effect="non-scaling-stroke" d="
  M 346.2788 434.3369
  A 7.93 7.93 0.0 0 0 335.8516 430.2085
  L 333.0800 431.4078
  A 7.93 7.93 0.0 0 0 328.9516 441.8350
  L 333.7412 452.9031
  A 7.93 7.93 0.0 0 0 344.1684 457.0315
  L 346.9400 455.8322
  A 7.93 7.93 0.0 0 0 351.0684 445.4050
  L 346.2788 434.3369"
/>
<path stroke="#edb2a3" vector-effect="non-scaling-stroke" d="
  M 199.42 436.23
  Q 199.77 435.99 199.84 435.63
  Q 199.96 435.02 199.38 434.81
  L 192.96 432.50
  Q 192.40 432.29 192.19 432.86
  Q 189.07 441.26 185.70 451.08
  Q 183.58 457.27 189.10 460.32
  C 195.20 463.70 201.64 463.37 203.95 455.37
  Q 204.26 454.31 203.23 453.93
  L 198.17 452.08
  Q 196.80 451.57 196.46 452.99
  Q 195.98 454.92 195.04 456.56
  Q 194.42 457.64 193.36 456.98
  Q 193.00 456.75 192.99 456.32
  C 192.98 454.80 193.62 451.28 195.56 451.09
  Q 198.99 450.74 202.51 450.62
  Q 205.36 450.52 206.65 447.69
  C 207.75 445.25 209.43 440.77 207.97 438.69
  C 206.11 436.02 202.55 434.89 199.94 436.73
  Q 199.78 436.84 199.58 436.83
  Q 199.42 436.82 199.33 436.65
  Q 199.18 436.40 199.42 436.23"
/>
<path stroke="#edb2a3" vector-effect="non-scaling-stroke" d="
  M 314.29 439.69
  L 314.06 438.99
  A 0.61 0.61 0.0 0 0 313.30 438.60
  L 306.43 440.68
  Q 305.92 440.84 306.07 441.35
  L 313.46 466.28
  Q 313.64 466.90 314.26 466.71
  L 321.13 464.67
  Q 321.58 464.54 321.45 464.09
  L 315.45 443.82
  Q 315.16 442.84 316.07 442.37
  Q 316.52 442.14 317.01 442.23
  A 0.95 0.95 0.0 0 1 317.76 442.89
  L 323.89 463.38
  Q 324.02 463.81 324.46 463.68
  L 331.53 461.59
  Q 331.91 461.48 331.80 461.10
  Q 328.84 450.80 325.69 440.59
  C 324.58 436.99 321.95 435.27 318.03 436.74
  Q 315.77 437.58 314.78 439.72
  Q 314.50 440.33 314.29 439.69"
/>
<path stroke="#edb2a3" vector-effect="non-scaling-stroke" d="
  M 218.49 454.47
  L 209.23 452.21
  Q 208.69 452.08 208.51 452.61
  Q 207.04 457.15 207.16 460.92
  C 207.32 465.83 212.23 468.35 216.65 468.75
  C 221.07 469.15 224.24 467.13 225.39 462.90
  Q 226.97 457.12 228.17 451.44
  C 229.46 445.34 225.52 441.95 220.16 440.86
  C 213.53 439.51 210.20 443.47 209.19 449.49
  Q 209.05 450.34 209.89 450.55
  L 215.51 451.90
  Q 216.78 452.21 216.99 450.91
  Q 217.31 448.86 217.92 446.95
  Q 218.49 445.16 220.31 445.92
  A 0.74 0.73 17.9 0 1 220.75 446.76
  L 219.15 454.05
  A 0.55 0.54 -77.1 0 1 218.49 454.47"
/>
<path stroke="#edb2a3" vector-effect="non-scaling-stroke" d="
  M 298.58 468.35
  Q 298.72 469.09 298.66 469.86
  Q 298.60 470.52 299.25 470.40
  L 306.37 469.09
  Q 306.93 468.99 306.83 468.43
  L 302.07 442.51
  Q 302.03 442.28 301.80 442.32
  L 294.16 443.70
  Q 293.94 443.74 293.98 443.96
  Q 294.88 449.24 295.94 454.81
  C 296.51 457.83 297.76 461.41 293.19 462.24
  Q 292.34 462.40 292.50 463.24
  L 294.01 471.44
  A 0.42 0.42 0.0 0 0 294.58 471.75
  Q 296.94 470.76 298.00 468.29
  Q 298.40 467.38 298.58 468.35"
/>
<path stroke="#edb2a3" vector-effect="non-scaling-stroke" d="
  M 232.87 468.23
  L 232.48 469.96
  Q 232.35 470.57 232.96 470.65
  L 239.93 471.58
  Q 240.57 471.67 240.66 471.03
  L 244.25 445.12
  Q 244.29 444.84 244.00 444.79
  L 236.30 443.68
  Q 236.10 443.66 236.07 443.86
  Q 235.23 450.48 234.07 457.99
  C 233.60 461.03 231.89 460.93 229.41 460.99
  Q 228.79 461.00 228.71 461.62
  L 227.53 469.97
  Q 227.45 470.56 228.04 470.49
  Q 230.91 470.13 232.49 468.05
  Q 233.09 467.27 232.87 468.23"
/>
<path stroke="#edb2a3" vector-effect="non-scaling-stroke" d="
  M 254.02 472.63
  L 254.34 464.50
  Q 254.35 464.33 254.17 464.32
  L 246.08 463.91
  Q 245.91 463.90 245.89 464.06
  Q 243.87 476.24 250.91 478.63
  C 255.25 480.10 260.37 479.95 263.61 476.52
  Q 265.43 474.60 265.63 472.16
  Q 266.23 465.10 266.37 455.61
  C 266.42 452.24 266.05 448.32 262.82 446.57
  Q 257.86 443.90 252.45 445.38
  C 246.38 447.05 246.06 452.10 245.92 457.33
  Q 245.90 458.38 246.95 458.44
  L 253.29 458.80
  Q 254.71 458.88 254.57 457.47
  Q 254.38 455.55 254.92 451.83
  Q 255.11 450.55 256.40 450.45
  Q 256.58 450.44 256.75 450.48
  Q 257.63 450.68 257.65 451.59
  Q 257.84 462.40 257.02 472.91
  Q 256.95 473.71 256.15 473.70
  L 255.01 473.68
  Q 253.98 473.66 254.02 472.63"
/>
<path stroke="#edb2a3" vector-effect="non-scaling-stroke" d="
  M 164.1601 450.9528
  A 0.47 0.47 0.0 0 0 163.9758 450.3142
  L 157.3223 446.6413
  A 0.47 0.47 0.0 0 0 156.6837 446.8256
  L 155.0599 449.7672
  A 0.47 0.47 0.0 0 0 155.2442 450.4058
  L 161.8977 454.0787
  A 0.47 0.47 0.0 0 0 162.5363 453.8944
  L 164.1601 450.9528"
/>
<path stroke="#edb2a3" vector-effect="non-scaling-stroke" d="
  M 285.90 462.78
  A 4.34 4.34 0.0 0 0 281.56 458.44
  A 4.34 4.34 0.0 0 0 277.22 462.78
  A 4.34 4.34 0.0 0 0 281.56 467.12
  A 4.34 4.34 0.0 0 0 285.90 462.78"
/>
<path stroke="#edb2a3" vector-effect="non-scaling-stroke" d="
  M 327.26 80.69
  C 324.71 81.56 323.68 84.37 323.30 87.19
  A 0.93 0.93 0.0 0 0 323.90 88.19
  Q 325.20 88.67 325.69 87.36
  Q 326.74 84.52 327.86 81.29
  Q 328.17 80.37 327.26 80.69"
/>
<path stroke="#f9f180" vector-effect="non-scaling-stroke" d="
  M 240.26 225.21
  L 273.27 230.76
  A 0.82 0.82 0.0 0 0 274.21 230.14
  L 278.96 210.81
  A 0.70 0.69 7.6 0 0 278.30 209.95
  L 241.78 209.10
  Q 241.20 209.09 241.26 208.52
  L 242.87 193.73
  Q 242.98 192.70 244.02 192.74
  L 280.39 193.96
  A 0.95 0.94 -81.6 0 0 281.34 193.25
  L 290.86 155.74
  A 0.60 0.60 0.0 0 0 290.24 155.00
  L 220.83 159.23
  A 0.94 0.94 0.0 0 0 219.94 160.18
  L 221.11 243.28
  A 0.77 0.77 0.0 0 1 220.51 244.04
  C 212.98 245.84 206.85 249.62 201.95 255.93
  C 195.26 264.52 193.45 279.12 205.84 283.85
  C 222.36 290.16 245.56 271.92 241.30 253.97
  Q 240.52 250.70 238.13 248.48
  Q 237.59 247.98 237.66 247.25
  L 239.55 225.76
  Q 239.61 225.10 240.26 225.21"
/>
<path stroke="#e7a424" vector-effect="non-scaling-stroke" d="
  M 259.77 322.17
  Q 286.26 324.01 313.48 326.05
  C 315.18 326.17 316.42 324.44 317.67 323.49
  Q 318.90 322.56 318.98 321.12
  Q 320.34 296.20 321.56 272.95
  Q 321.64 271.47 322.39 272.75
  Q 336.43 296.79 348.52 317.70
  Q 348.66 317.95 348.88 318.15
  Q 349.34 318.58 349.20 317.96
  L 332.28 241.37
  A 0.44 0.44 0.0 0 0 331.67 241.06
  L 307.04 251.83
  A 1.06 1.05 79.7 0 0 306.41 252.75
  L 303.56 308.03
  A 0.60 0.60 0.0 0 1 302.91 308.60
  Q 275.22 306.62 248.84 304.76
  Q 246.46 304.60 243.93 304.58
  Q 243.41 304.58 243.12 305.01
  L 228.37 327.14
  A 0.52 0.52 0.0 0 0 228.61 327.91
  L 300.51 358.22
  Q 302.01 358.85 300.77 357.79
  L 259.57 322.67
  Q 258.91 322.11 259.77 322.17"
/>
<path stroke="#edb2a3" vector-effect="non-scaling-stroke" d="
  M 426.5299 140.6793
  A 1.04 1.04 0.0 0 0 425.0720 140.4848
  L 422.4981 142.4527
  A 1.04 1.04 0.0 0 0 422.3036 143.9106
  L 422.5101 144.1807
  A 1.04 1.04 0.0 0 0 423.9680 144.3752
  L 426.5419 142.4073
  A 1.04 1.04 0.0 0 0 426.7364 140.9494
  L 426.5299 140.6793"
/>
<path stroke="#edb2a3" vector-effect="non-scaling-stroke" d="
  M 445.6041 171.1332
  A 1.17 1.17 0.0 0 0 444.0296 170.6246
  L 429.6971 177.9589
  A 1.17 1.17 0.0 0 0 429.1886 179.5334
  L 429.2159 179.5868
  A 1.17 1.17 0.0 0 0 430.7904 180.0954
  L 445.1229 172.7611
  A 1.17 1.17 0.0 0 0 445.6314 171.1866
  L 445.6041 171.1332"
/>
<path stroke="#edb2a3" vector-effect="non-scaling-stroke" d="
  M 455.1500 192.0711
  A 1.22 1.22 0.0 0 0 453.5813 191.3528
  L 438.5473 196.9439
  A 1.22 1.22 0.0 0 0 437.8291 198.5127
  L 437.8500 198.5689
  A 1.22 1.22 0.0 0 0 439.4187 199.2872
  L 454.4527 193.6961
  A 1.22 1.22 0.0 0 0 455.1709 192.1273
  L 455.1500 192.0711"
/>
<path stroke="#edb2a3" vector-effect="non-scaling-stroke" d="
  M 458.2159 327.1722
  A 1.17 1.17 0.0 0 0 457.4596 325.7005
  L 442.0541 320.7544
  A 1.17 1.17 0.0 0 0 440.5825 321.5107
  L 440.5641 321.5678
  A 1.17 1.17 0.0 0 0 441.3204 323.0395
  L 456.7259 327.9856
  A 1.17 1.17 0.0 0 0 458.1975 327.2293
  L 458.2159 327.1722"
/>
<path stroke="#edb2a3" vector-effect="non-scaling-stroke" d="
  M 413.71 373.63
  L 419.94 378.80
  A 0.18 0.18 0.0 0 0 420.19 378.78
  L 420.24 378.73
  A 3.12 2.37 39.7 0 0 419.35 374.91
  L 417.64 373.49
  A 3.12 2.37 39.7 0 0 413.73 373.32
  L 413.68 373.38
  A 0.18 0.18 0.0 0 0 413.71 373.63"
/>
<path stroke="#edb2a3" vector-effect="non-scaling-stroke" d="
  M 99.05 388.11
  L 108.83 382.41
  Q 109.62 381.95 109.08 381.21
  L 108.43 380.31
  Q 107.86 379.52 107.14 380.18
  L 98.82 387.80
  Q 97.50 389.01 99.05 388.11"
/>
<path stroke="#edb2a3" vector-effect="non-scaling-stroke" d="
  M 413.9993 402.3130
  A 1.19 1.19 0.0 0 0 413.9347 400.6314
  L 404.7631 392.1383
  A 1.19 1.19 0.0 0 0 403.0814 392.2029
  L 403.0407 392.2470
  A 1.19 1.19 0.0 0 0 403.1053 393.9286
  L 412.2769 402.4217
  A 1.19 1.19 0.0 0 0 413.9586 402.3571
  L 413.9993 402.3130"
/>
<path stroke="#edb2a3" vector-effect="non-scaling-stroke" d="
  M 394.4826 415.1274
  A 0.95 0.95 0.0 0 0 393.1410 415.0570
  L 392.7991 415.3648
  A 0.95 0.95 0.0 0 0 392.7288 416.7065
  L 395.0574 419.2926
  A 0.95 0.95 0.0 0 0 396.3990 419.3630
  L 396.7409 419.0552
  A 0.95 0.95 0.0 0 0 396.8112 417.7135
  L 394.4826 415.1274"
/>
<path stroke="#edb2a3" vector-effect="non-scaling-stroke" d="
  M 137.5080 420.1703
  A 0.90 0.90 0.0 0 0 137.3706 418.9049
  L 136.9030 418.5290
  A 0.90 0.90 0.0 0 0 135.6376 418.6664
  L 133.4320 421.4097
  A 0.90 0.90 0.0 0 0 133.5694 422.6751
  L 134.0370 423.0510
  A 0.90 0.90 0.0 0 0 135.3024 422.9136
  L 137.5080 420.1703"
/>
<path stroke="#edb2a3" vector-effect="non-scaling-stroke" d="
  M 337.9317 435.7882
  A 1.17 1.17 0.0 0 0 336.3954 435.1738
  L 336.3403 435.1974
  A 1.17 1.17 0.0 0 0 335.7258 436.7337
  L 342.0683 451.5318
  A 1.17 1.17 0.0 0 0 343.6046 452.1462
  L 343.6597 452.1226
  A 1.17 1.17 0.0 0 0 344.2742 450.5863
  L 337.9317 435.7882"
/>
<path stroke="#edb2a3" vector-effect="non-scaling-stroke" d="
  M 198.36 440.15
  L 196.06 446.44
  Q 195.74 447.32 196.62 447.01
  C 199.45 446.04 199.75 444.08 200.58 441.45
  Q 200.81 440.72 200.48 440.05
  A 1.16 1.15 42.2 0 0 198.36 440.15"
/>
<path stroke="#edb2a3" vector-effect="non-scaling-stroke" d="
  M 217.7593 459.4295
  A 0.72 0.72 0.0 0 0 217.2093 458.5726
  L 216.2713 458.3681
  A 0.72 0.72 0.0 0 0 215.4144 458.9182
  L 214.6007 462.6505
  A 0.72 0.72 0.0 0 0 215.1507 463.5074
  L 216.0887 463.7119
  A 0.72 0.72 0.0 0 0 216.9456 463.1618
  L 217.7593 459.4295"
/>
</g>
<path fill="#db6447" d="
  M 492.47 264.10
  A 229.29 229.29 0.0 0 1 263.18 493.39
  A 229.29 229.29 0.0 0 1 33.89 264.10
  A 229.29 229.29 0.0 0 1 263.18 34.81
  A 229.29 229.29 0.0 0 1 492.47 264.10
  Z
  M 267.01 115.27
  Q 267.30 115.29 267.36 115.01
  L 281.03 51.30
  A 0.49 0.49 0.0 0 0 280.59 50.71
  Q 258.72 48.65 236.98 50.65
  A 0.63 0.62 86.2 0 0 236.41 51.31
  L 240.09 115.49
  A 0.47 0.46 -5.7 0 0 240.62 115.92
  Q 252.81 114.15 267.01 115.27
  Z
  M 299.96 64.93
  A 0.40 0.40 0.0 0 1 299.63 64.46
  L 300.58 59.01
  A 0.40 0.40 0.0 0 1 301.05 58.68
  L 306.12 59.61
  A 0.40 0.40 0.0 0 0 306.59 59.28
  L 307.59 53.56
  A 0.40 0.40 0.0 0 0 307.27 53.10
  L 293.69 50.73
  A 0.40 0.40 0.0 0 0 293.22 51.06
  L 287.77 82.89
  A 0.40 0.40 0.0 0 0 288.09 83.35
  L 295.79 84.68
  A 0.40 0.40 0.0 0 0 296.26 84.35
  L 298.41 71.46
  A 0.40 0.40 0.0 0 1 298.87 71.13
  L 303.39 71.84
  A 0.40 0.40 0.0 0 0 303.85 71.51
  L 304.75 66.13
  A 0.40 0.40 0.0 0 0 304.42 65.66
  L 299.96 64.93
  Z
  M 319.6779 56.6495
  A 0.45 0.45 0.0 0 0 319.3511 56.1035
  L 311.9218 54.2374
  A 0.45 0.45 0.0 0 0 311.3758 54.5642
  L 303.5021 85.9105
  A 0.45 0.45 0.0 0 0 303.8289 86.4565
  L 311.2582 88.3226
  A 0.45 0.45 0.0 0 0 311.8042 87.9958
  L 319.6779 56.6495
  Z
  M 324.41 91.87
  L 324.27 92.15
  Q 323.96 92.76 324.61 92.99
  L 331.03 95.23
  Q 331.73 95.47 331.97 94.78
  Q 334.77 86.69 337.77 77.82
  C 338.78 74.82 339.48 71.27 336.78 68.93
  C 333.37 65.98 325.21 63.26 321.99 68.00
  Q 320.69 69.91 319.80 72.27
  Q 319.32 73.56 320.62 74.00
  L 325.76 75.71
  Q 326.83 76.07 327.21 75.01
  L 328.58 71.16
  A 0.88 0.87 88.6 0 1 329.09 70.62
  Q 329.75 70.34 330.29 70.80
  Q 330.83 71.25 330.77 71.96
  Q 330.60 74.14 329.41 76.12
  A 1.12 1.10 -76.4 0 1 328.53 76.67
  Q 324.77 76.97 320.91 77.26
  C 317.28 77.53 316.04 83.12 315.46 85.89
  C 314.55 90.30 320.30 93.58 323.78 91.31
  Q 325.15 90.42 324.41 91.87
  Z
  M 352.27 81.02
  L 351.20 83.33
  Q 350.83 84.13 351.62 84.49
  L 356.69 86.86
  Q 357.39 87.19 357.80 86.54
  Q 360.87 81.61 357.45 78.04
  C 354.88 75.35 347.84 71.72 344.43 75.32
  C 341.98 77.90 340.16 82.26 342.24 85.67
  Q 343.87 88.34 345.98 91.15
  Q 346.70 92.11 346.60 93.15
  Q 346.39 95.57 344.72 96.27
  Q 343.12 96.95 343.10 95.21
  Q 343.07 93.61 344.12 92.36
  Q 345.02 91.29 343.77 90.67
  L 338.99 88.26
  Q 337.94 87.74 337.53 88.83
  Q 336.94 90.40 336.40 91.92
  C 334.53 97.22 341.02 100.97 345.27 101.97
  C 350.25 103.15 352.87 99.42 354.17 95.34
  C 356.29 88.72 346.53 85.70 349.75 80.20
  A 1.37 1.37 0.0 0 1 351.45 79.62
  L 351.78 79.75
  A 0.94 0.93 -66.4 0 1 352.27 81.02
  Z
  M 372.39 87.29
  A 0.30 0.30 0.0 0 1 372.11 86.83
  L 375.25 81.83
  Q 375.71 81.09 374.97 80.63
  L 369.69 77.30
  Q 368.74 76.70 368.14 77.66
  L 351.55 104.30
  A 0.57 0.57 0.0 0 0 351.73 105.09
  L 357.83 108.86
  Q 358.26 109.13 358.53 108.70
  Q 363.95 99.92 369.45 91.16
  Q 370.10 90.13 371.35 90.45
  Q 371.97 90.61 371.80 92.08
  A 0.75 0.71 66.4 0 1 371.69 92.39
  L 360.74 110.03
  Q 360.43 110.53 360.94 110.84
  L 367.00 114.57
  Q 367.43 114.83 367.70 114.40
  Q 372.93 106.07 378.79 96.55
  Q 380.03 94.52 379.91 92.62
  C 379.69 89.10 375.63 86.96 372.39 87.29
  Z
  M 178.61 138.02
  A 0.54 0.54 0.0 0 0 178.75 137.24
  L 140.19 85.49
  Q 139.87 85.06 139.43 85.37
  Q 121.18 98.28 105.93 113.79
  A 0.38 0.38 0.0 0 0 105.93 114.31
  L 150.79 160.96
  A 0.53 0.53 0.0 0 0 151.56 160.95
  Q 163.59 147.67 178.61 138.02
  Z
  M 412.15 125.89
  Q 404.70 133.58 397.27 140.53
  Q 396.93 140.84 397.26 141.17
  L 402.02 145.91
  Q 402.32 146.20 402.62 145.91
  L 425.47 123.64
  Q 425.95 123.17 425.49 122.68
  L 418.60 115.54
  Q 418.13 115.05 417.60 115.46
  L 407.17 123.42
  Q 405.67 124.56 406.82 123.06
  L 414.81 112.61
  Q 415.15 112.17 414.77 111.77
  L 408.00 104.66
  Q 407.41 104.04 406.80 104.63
  L 383.88 127.06
  Q 383.63 127.31 383.88 127.55
  L 388.70 132.32
  A 0.40 0.40 0.0 0 0 389.26 132.33
  L 404.07 117.87
  Q 404.10 117.84 404.07 117.82
  Q 402.92 116.81 404.12 117.87
  Q 404.16 117.91 404.13 117.96
  Q 398.28 125.70 391.63 134.26
  Q 391.22 134.79 391.66 135.29
  L 394.25 138.25
  Q 394.76 138.83 395.37 138.37
  L 412.13 125.87
  Q 412.28 125.76 412.15 125.89
  Z
  M 392.69 109.87
  A 4.35 4.35 0.0 0 0 388.34 105.52
  A 4.35 4.35 0.0 0 0 383.99 109.87
  A 4.35 4.35 0.0 0 0 388.34 114.22
  A 4.35 4.35 0.0 0 0 392.69 109.87
  Z
  M 387.13 257.85
  A 129.19 129.19 0.0 0 0 257.94 128.66
  A 129.19 129.19 0.0 0 0 128.75 257.85
  A 129.19 129.19 0.0 0 0 257.94 387.04
  A 129.19 129.19 0.0 0 0 387.13 257.85
  Z
  M 418.67 146.25
  L 424.31 153.71
  Q 424.65 154.15 425.11 153.85
  C 429.69 150.87 434.38 147.14 432.25 141.02
  C 430.30 135.42 424.36 131.05 418.49 135.17
  Q 414.01 138.32 409.16 142.22
  Q 403.95 146.41 406.59 152.33
  C 408.42 156.45 412.53 160.31 417.32 158.84
  Q 419.70 158.10 422.52 156.00
  Q 423.36 155.37 422.72 154.54
  L 419.02 149.73
  Q 418.44 148.98 417.72 149.59
  Q 416.01 151.05 414.10 152.25
  A 1.99 1.88 -49.4 0 1 412.40 152.43
  Q 411.78 152.20 411.71 151.22
  A 0.92 0.90 68.8 0 1 412.05 150.43
  L 417.54 146.11
  Q 418.18 145.60 418.67 146.25
  Z
  M 443.5800 146.9949
  A 0.42 0.42 0.0 0 0 443.0010 146.8623
  L 415.6221 164.0371
  A 0.42 0.42 0.0 0 0 415.4895 164.6161
  L 419.5600 171.1051
  A 0.42 0.42 0.0 0 0 420.1390 171.2377
  L 447.5179 154.0629
  A 0.42 0.42 0.0 0 0 447.6505 153.4839
  L 443.5800 146.9949
  Z
  M 449.1132 167.6931
  A 7.95 7.95 0.0 0 0 438.4144 164.2375
  L 427.7140 169.7131
  A 7.95 7.95 0.0 0 0 424.2584 180.4119
  L 425.6068 183.0469
  A 7.95 7.95 0.0 0 0 436.3056 186.5025
  L 447.0060 181.0269
  A 7.95 7.95 0.0 0 0 450.4616 170.3281
  L 449.1132 167.6931
  Z
  M 458.30 191.76
  C 459.79 187.46 456.80 181.46 451.44 183.39
  Q 443.77 186.15 435.28 189.36
  C 429.93 191.38 430.61 197.96 435.30 200.12
  Q 435.97 200.43 435.36 200.85
  Q 435.11 201.02 434.82 201.09
  Q 434.16 201.26 434.40 201.90
  L 436.90 208.50
  Q 437.09 208.98 437.57 208.80
  L 466.87 197.90
  Q 468.10 197.44 467.64 196.22
  L 465.65 190.92
  Q 465.19 189.71 463.99 190.17
  L 458.71 192.16
  A 0.32 0.32 0.0 0 1 458.30 191.76
  Z
  M 115.98 240.74
  Q 116.24 240.73 116.27 240.47
  Q 117.48 227.35 121.44 214.62
  A 0.54 0.54 0.0 0 0 121.05 213.93
  L 58.46 199.16
  Q 58.00 199.06 57.88 199.51
  Q 52.12 220.50 50.35 242.15
  Q 50.27 243.15 51.27 243.12
  L 115.98 240.74
  Z
  M 449.55 217.03
  Q 457.23 213.67 465.16 210.58
  Q 465.44 210.47 465.37 210.18
  L 463.68 203.43
  A 0.28 0.27 -19.9 0 0 463.30 203.26
  L 440.47 214.09
  Q 439.02 214.78 438.66 213.22
  L 438.36 211.97
  Q 438.26 211.53 437.82 211.64
  L 434.53 212.49
  Q 434.02 212.63 434.13 213.14
  C 435.34 218.88 436.25 225.55 443.09 224.73
  Q 456.50 223.14 467.95 221.62
  A 0.26 0.26 0.0 0 0 468.17 221.30
  L 466.55 214.59
  Q 466.49 214.31 466.21 214.36
  L 449.63 217.29
  Q 448.50 217.49 449.55 217.03
  Z
  M 464.96 236.63
  A 4.36 4.36 0.0 0 0 460.60 232.27
  A 4.36 4.36 0.0 0 0 456.24 236.63
  A 4.36 4.36 0.0 0 0 460.60 240.99
  A 4.36 4.36 0.0 0 0 464.96 236.63
  Z
  M 451.73 260.54
  A 0.31 0.31 0.0 0 1 452.03 260.23
  L 458.67 259.92
  A 0.31 0.31 0.0 0 1 458.99 260.23
  L 459.00 265.02
  A 0.31 0.31 0.0 0 0 459.32 265.33
  L 465.16 265.23
  A 0.31 0.31 0.0 0 0 465.46 264.90
  L 465.23 260.04
  A 0.31 0.31 0.0 0 1 465.54 259.71
  L 471.27 259.76
  A 0.31 0.31 0.0 0 1 471.58 260.06
  L 471.78 265.12
  A 0.31 0.31 0.0 0 0 472.10 265.42
  L 478.03 265.23
  A 0.31 0.31 0.0 0 0 478.33 264.91
  L 478.03 251.15
  A 0.31 0.31 0.0 0 0 477.71 250.85
  L 445.06 251.76
  A 0.31 0.31 0.0 0 0 444.76 252.08
  L 445.23 266.42
  A 0.31 0.31 0.0 0 0 445.56 266.72
  L 451.45 266.41
  A 0.31 0.31 0.0 0 0 451.74 266.10
  L 451.73 260.54
  Z
  M 70.24 272.74
  Q 62.76 274.43 54.42 275.83
  A 0.24 0.23 -7.2 0 0 54.23 276.07
  L 54.61 283.29
  Q 54.62 283.44 54.76 283.41
  L 79.82 277.23
  A 0.91 0.91 0.0 0 1 80.94 278.08
  L 81.00 279.56
  A 0.76 0.76 0.0 0 0 81.81 280.29
  L 84.77 280.10
  Q 85.42 280.06 85.43 279.40
  Q 85.46 274.97 84.88 271.58
  Q 84.10 267.02 79.82 266.56
  Q 67.73 265.24 53.91 264.50
  Q 53.67 264.49 53.68 264.73
  L 54.06 271.77
  Q 54.07 271.96 54.26 271.97
  L 70.19 272.28
  Q 72.14 272.31 70.24 272.74
  Z
  M 469.97 281.05
  L 470.98 281.15
  Q 471.41 281.19 471.45 280.76
  L 472.12 273.28
  A 0.45 0.45 0.0 0 0 471.71 272.79
  L 445.57 270.52
  Q 445.10 270.48 445.07 270.94
  L 444.45 278.30
  Q 444.42 278.68 444.80 278.72
  L 465.73 280.57
  Q 466.67 280.65 466.94 281.57
  Q 467.03 281.88 466.95 282.18
  Q 466.68 283.15 465.68 283.07
  L 444.73 281.31
  A 0.57 0.57 0.0 0 0 444.12 281.83
  L 443.52 289.02
  Q 443.48 289.41 443.88 289.45
  Q 453.31 290.39 465.60 291.31
  C 470.14 291.66 472.20 288.12 471.24 283.75
  C 471.05 282.88 470.21 282.23 469.70 281.52
  Q 469.31 280.98 469.97 281.05
  Z
  M 62.07 297.00
  Q 70.37 296.01 79.02 294.66
  C 84.36 293.83 82.56 287.54 82.11 284.09
  Q 82.02 283.37 81.31 283.46
  L 78.27 283.85
  Q 77.71 283.92 77.71 284.49
  L 77.72 286.03
  A 0.58 0.57 86.0 0 1 77.23 286.60
  L 60.55 288.94
  A 0.39 0.38 -1.9 0 1 60.11 288.54
  L 60.17 287.44
  Q 60.21 286.69 59.47 286.80
  L 56.44 287.23
  Q 55.85 287.31 55.90 287.91
  L 56.00 288.97
  Q 56.06 289.56 55.47 289.64
  L 52.77 289.99
  Q 51.89 290.11 52.01 290.98
  L 52.90 297.47
  Q 53.03 298.38 53.93 298.23
  L 56.47 297.82
  Q 57.22 297.70 57.32 298.45
  L 57.39 299.02
  Q 57.47 299.57 58.02 299.48
  L 61.52 298.92
  Q 61.91 298.86 61.80 298.48
  L 61.59 297.73
  Q 61.40 297.08 62.07 297.00
  Z
  M 462.50 305.97
  L 458.55 305.37
  Q 457.75 305.25 457.59 306.04
  L 456.43 311.77
  Q 456.18 313.03 457.45 313.15
  Q 461.06 313.47 463.17 312.90
  C 467.84 311.63 469.49 305.06 468.63 300.91
  C 467.89 297.33 465.50 295.78 461.97 295.02
  Q 458.28 294.23 454.47 293.45
  C 447.39 292.01 442.30 292.35 440.87 300.63
  Q 439.84 306.57 444.15 309.62
  C 445.74 310.75 447.72 310.89 449.53 311.52
  Q 450.56 311.88 450.77 310.81
  L 451.87 305.28
  Q 452.04 304.43 451.19 304.24
  L 446.52 303.20
  Q 445.61 303.00 445.52 302.07
  Q 445.47 301.60 445.92 300.98
  A 1.32 1.32 0.0 0 1 447.25 300.47
  L 463.21 303.72
  A 0.90 0.89 -79.2 0 1 463.91 304.76
  L 463.86 305.01
  Q 463.64 306.15 462.50 305.97
  Z
  M 84.4710 298.5921
  A 0.36 0.36 0.0 0 0 84.0435 298.3156
  L 58.2105 303.8537
  A 0.36 0.36 0.0 0 0 57.9340 304.2812
  L 59.5690 311.9079
  A 0.36 0.36 0.0 0 0 59.9965 312.1844
  L 85.8295 306.6463
  A 0.36 0.36 0.0 0 0 86.1060 306.2188
  L 84.4710 298.5921
  Z
  M 56.3032 304.6821
  A 0.41 0.41 0.0 0 0 55.8180 304.3646
  L 52.4115 305.0763
  A 0.41 0.41 0.0 0 0 52.0940 305.5614
  L 53.6768 313.1379
  A 0.41 0.41 0.0 0 0 54.1620 313.4554
  L 57.5685 312.7437
  A 0.41 0.41 0.0 0 0 57.8860 312.2586
  L 56.3032 304.6821
  Z
  M 80.13 318.87
  Q 72.56 322.16 63.87 325.66
  Q 63.32 325.89 63.49 326.45
  L 65.40 332.64
  A 0.35 0.34 68.2 0 0 65.88 332.85
  L 89.93 321.42
  A 0.59 0.59 0.0 0 0 90.24 320.72
  L 87.40 311.45
  Q 87.23 310.89 86.66 310.98
  L 60.48 314.93
  Q 60.01 315.00 60.15 315.45
  L 61.99 321.52
  Q 62.16 322.11 62.77 321.99
  L 80.02 318.51
  Q 81.77 318.15 80.13 318.87
  Z
  M 463.1698 327.4006
  A 7.97 7.97 0.0 0 0 458.1758 317.2960
  L 446.6766 313.4038
  A 7.97 7.97 0.0 0 0 436.5721 318.3978
  L 435.6102 321.2394
  A 7.97 7.97 0.0 0 0 440.6042 331.3440
  L 452.1034 335.2362
  A 7.97 7.97 0.0 0 0 462.2079 330.2422
  L 463.1698 327.4006
  Z
  M 396.58 352.46
  A 0.40 0.40 0.0 0 1 396.53 353.03
  L 325.72 412.09
  A 0.40 0.40 0.0 0 1 325.15 412.04
  L 302.74 385.17
  A 0.40 0.40 0.0 0 0 302.32 385.05
  L 294.32 387.47
  A 0.40 0.40 0.0 0 0 294.13 388.11
  L 321.50 420.92
  A 0.40 0.40 0.0 0 0 321.77 421.07
  L 327.38 421.59
  A 0.40 0.40 0.0 0 0 327.68 421.50
  L 405.44 356.65
  A 0.40 0.40 0.0 0 0 405.58 356.37
  L 406.07 350.75
  A 0.40 0.40 0.0 0 0 405.97 350.46
  L 378.62 317.64
  A 0.40 0.40 0.0 0 0 377.95 317.72
  L 374.12 325.15
  A 0.40 0.40 0.0 0 0 374.17 325.59
  L 396.58 352.46
  Z
  M 92.2749 327.1149
  A 0.44 0.44 0.0 0 0 91.7047 326.8658
  L 67.2738 336.4402
  A 0.44 0.44 0.0 0 0 67.0247 337.0104
  L 69.8051 344.1051
  A 0.44 0.44 0.0 0 0 70.3753 344.3542
  L 94.8062 334.7798
  A 0.44 0.44 0.0 0 0 95.0553 334.2096
  L 92.2749 327.1149
  Z
  M 429.57 340.62
  L 429.12 340.35
  Q 428.50 339.99 428.21 340.64
  L 425.32 347.03
  Q 425.07 347.60 425.64 347.86
  L 449.29 358.62
  Q 449.83 358.86 450.08 358.32
  L 453.09 351.78
  A 0.47 0.47 0.0 0 0 452.86 351.15
  L 433.23 342.20
  A 0.85 0.83 16.2 0 1 432.74 341.33
  Q 432.79 340.93 433.02 340.65
  Q 433.79 339.72 434.88 340.21
  L 453.71 348.72
  Q 454.33 349.00 454.61 348.38
  L 457.48 342.02
  Q 457.73 341.47 457.18 341.22
  Q 447.92 337.02 437.81 332.48
  Q 432.81 330.23 430.21 335.09
  Q 428.90 337.54 430.08 340.16
  Q 430.56 341.21 429.57 340.62
  Z
  M 65.3988 337.4812
  A 0.28 0.28 0.0 0 0 65.0365 337.3214
  L 61.5497 338.6739
  A 0.28 0.28 0.0 0 0 61.3899 339.0362
  L 64.2612 346.4388
  A 0.28 0.28 0.0 0 0 64.6235 346.5986
  L 68.1103 345.2461
  A 0.28 0.28 0.0 0 0 68.2701 344.8838
  L 65.3988 337.4812
  Z
  M 73.04 351.49
  L 70.31 352.82
  Q 69.63 353.16 69.96 353.84
  L 72.89 359.99
  Q 73.24 360.73 73.96 360.32
  L 76.05 359.13
  Q 76.43 358.92 76.83 359.06
  Q 77.31 359.24 77.53 359.73
  Q 77.77 360.30 78.34 360.06
  L 81.19 358.84
  A 0.59 0.59 0.0 0 0 81.44 357.97
  Q 81.24 357.67 81.19 357.31
  A 0.78 0.78 0.0 0 1 81.64 356.47
  Q 89.39 352.94 96.91 349.14
  C 101.72 346.71 97.94 341.38 96.65 338.24
  Q 96.38 337.56 95.71 337.84
  L 92.97 338.99
  Q 92.13 339.34 92.60 340.13
  Q 92.91 340.65 92.96 341.25
  A 0.97 0.96 -15.4 0 1 92.42 342.19
  L 77.79 349.23
  Q 77.37 349.43 77.11 349.05
  Q 76.86 348.68 76.74 348.23
  Q 76.55 347.48 75.83 347.78
  L 72.99 348.97
  Q 72.37 349.23 72.71 349.80
  L 73.26 350.74
  Q 73.55 351.24 73.04 351.49
  Z
  M 371.9740 337.9603
  A 0.50 0.50 0.0 0 0 371.2698 337.8962
  L 358.0093 348.9445
  A 0.50 0.50 0.0 0 0 357.9452 349.6487
  L 367.0860 360.6197
  A 0.50 0.50 0.0 0 0 367.7902 360.6838
  L 381.0507 349.6355
  A 0.50 0.50 0.0 0 0 381.1148 348.9313
  L 371.9740 337.9603
  Z
  M 440.40 369.60
  L 441.97 370.79
  Q 442.50 371.20 442.84 370.62
  L 446.43 364.58
  Q 446.75 364.02 446.20 363.70
  L 423.56 350.45
  Q 423.28 350.28 423.11 350.56
  L 419.20 357.23
  Q 419.08 357.44 419.29 357.56
  Q 423.78 360.20 428.34 362.81
  C 431.01 364.35 435.40 366.21 432.40 370.17
  Q 432.03 370.67 432.57 370.99
  L 440.13 375.38
  Q 440.79 375.76 440.92 375.00
  Q 441.40 372.16 440.16 369.80
  Q 439.81 369.15 440.40 369.60
  Z
  M 87.07 367.38
  Q 87.37 366.87 87.86 366.55
  L 90.52 364.85
  Q 91.32 364.34 90.83 363.52
  L 87.79 358.43
  Q 87.29 357.59 86.49 358.14
  Q 84.62 359.44 83.11 360.98
  C 77.49 366.73 85.84 379.62 93.64 375.40
  Q 98.89 372.55 104.30 369.10
  Q 107.20 367.25 108.20 365.03
  C 109.91 361.25 107.49 356.00 104.42 353.60
  C 100.38 350.44 97.03 352.28 92.78 354.42
  Q 92.25 354.69 92.56 355.19
  L 95.74 360.51
  A 0.73 0.73 0.0 0 0 96.81 360.72
  Q 98.83 359.16 101.20 358.28
  Q 102.24 357.89 102.68 358.91
  Q 102.74 359.06 102.74 359.22
  Q 102.76 360.43 101.72 361.05
  Q 95.20 364.99 88.73 368.80
  A 1.50 1.45 -37.1 0 1 86.93 368.58
  Q 86.58 368.23 87.07 367.38
  Z
  M 411.13 372.37
  L 410.17 371.70
  Q 409.87 371.49 409.66 371.78
  L 405.51 377.55
  Q 405.17 378.02 405.64 378.37
  Q 412.68 383.52 419.35 388.22
  Q 423.40 391.08 425.04 391.30
  C 429.90 391.96 433.86 386.64 435.04 382.55
  C 436.36 378.00 433.62 375.52 430.33 373.14
  Q 429.63 372.63 429.12 373.33
  L 425.76 377.92
  Q 425.04 378.90 426.02 379.63
  L 429.31 382.09
  A 0.80 0.79 20.5 0 1 429.63 382.78
  Q 429.59 383.39 429.10 383.72
  Q 428.48 384.13 427.78 383.87
  Q 425.74 383.10 424.28 381.37
  Q 423.85 380.85 424.01 380.21
  Q 424.90 376.62 425.66 372.82
  Q 426.11 370.59 424.34 369.02
  C 421.93 366.88 417.82 363.34 414.60 365.27
  Q 410.39 367.80 411.53 372.09
  Q 411.71 372.78 411.13 372.37
  Z
  M 112.59 376.24
  A 0.49 0.49 0.0 0 1 112.66 375.58
  L 116.47 372.23
  A 0.49 0.49 0.0 0 0 116.53 371.57
  L 111.73 365.30
  A 0.49 0.49 0.0 0 0 110.99 365.25
  L 88.22 388.54
  A 0.49 0.49 0.0 0 0 88.18 389.18
  L 95.30 398.39
  A 0.49 0.49 0.0 0 0 95.93 398.52
  L 124.23 382.41
  A 0.49 0.49 0.0 0 0 124.37 381.68
  L 119.53 375.45
  A 0.49 0.49 0.0 0 0 118.87 375.35
  L 114.66 378.17
  A 0.49 0.49 0.0 0 1 114.00 378.07
  L 112.59 376.24
  Z
  M 328.5989 374.0785
  A 0.47 0.47 0.0 0 0 327.9370 374.0182
  L 314.6149 385.1177
  A 0.47 0.47 0.0 0 0 314.5547 385.7797
  L 323.7211 396.7815
  A 0.47 0.47 0.0 0 0 324.3830 396.8418
  L 337.7051 385.7423
  A 0.47 0.47 0.0 0 0 337.7653 385.0803
  L 328.5989 374.0785
  Z
  M 399.25 390.72
  L 397.29 388.64
  A 1.13 1.12 29.2 0 1 397.01 387.66
  Q 397.16 386.89 397.93 386.55
  Q 398.50 386.28 399.01 386.66
  Q 399.25 386.85 399.55 386.79
  A 1.91 1.41 -67.5 0 0 400.48 386.23
  L 404.59 381.70
  Q 405.03 381.21 404.54 380.78
  Q 401.51 378.11 398.13 380.08
  C 393.73 382.64 386.96 390.42 392.59 395.55
  Q 401.39 403.56 410.15 411.75
  Q 410.71 412.27 411.22 411.71
  L 415.66 406.89
  Q 416.06 406.46 415.64 406.04
  Q 415.29 405.69 415.10 405.26
  A 0.38 0.38 0.0 0 1 415.44 404.73
  Q 419.62 404.71 421.38 400.85
  C 422.70 397.94 420.38 395.26 418.33 393.37
  Q 414.16 389.53 410.28 386.09
  C 405.68 382.02 400.94 385.55 399.88 390.54
  Q 399.74 391.24 399.25 390.72
  Z
  M 121.38 399.48
  A 4.35 4.35 0.0 0 0 117.03 395.13
  A 4.35 4.35 0.0 0 0 112.68 399.48
  A 4.35 4.35 0.0 0 0 117.03 403.83
  A 4.35 4.35 0.0 0 0 121.38 399.48
  Z
  M 390.59 411.60
  L 383.54 417.61
  Q 383.06 418.02 383.44 418.53
  Q 385.72 421.63 388.55 423.94
  C 392.78 427.39 398.46 424.89 401.51 421.03
  Q 405.45 416.04 401.75 411.09
  Q 398.00 406.07 393.49 401.42
  C 389.21 397.00 384.19 398.77 380.41 402.44
  C 375.66 407.05 377.35 411.51 380.89 415.86
  Q 381.73 416.89 382.74 416.02
  L 386.87 412.42
  Q 387.72 411.68 387.00 410.80
  L 384.23 407.41
  Q 383.41 406.42 384.23 405.43
  Q 384.44 405.19 384.77 405.09
  Q 385.68 404.85 386.29 405.56
  L 390.67 410.60
  Q 391.13 411.14 390.59 411.60
  Z
  M 141.24 415.65
  A 0.64 0.63 39.0 0 1 140.34 415.74
  L 132.89 409.63
  Q 132.53 409.34 132.22 409.69
  Q 129.06 413.19 127.49 416.38
  C 124.86 421.74 129.68 427.03 134.47 428.88
  C 137.57 430.08 140.59 429.05 142.74 426.64
  Q 146.69 422.23 150.42 417.40
  C 154.47 412.15 152.09 407.27 147.37 403.94
  C 143.95 401.54 139.30 401.43 136.43 404.65
  Q 135.35 405.87 134.22 407.14
  Q 133.59 407.85 134.32 408.46
  L 138.92 412.33
  Q 139.98 413.22 140.58 411.97
  Q 141.09 410.92 143.47 408.66
  Q 144.20 407.97 145.16 408.30
  Q 145.77 408.51 145.71 409.57
  A 1.77 1.76 -23.9 0 1 145.31 410.60
  L 141.24 415.65
  Z
  M 157.14 423.33
  Q 153.24 430.98 148.85 439.14
  A 0.60 0.59 -59.0 0 0 149.04 439.92
  L 154.33 443.43
  Q 154.81 443.75 155.05 443.23
  L 166.24 419.28
  Q 166.46 418.80 166.02 418.50
  L 157.89 413.14
  A 0.66 0.66 0.0 0 0 157.04 413.25
  L 139.45 432.94
  Q 139.06 433.36 139.54 433.68
  L 144.74 437.08
  A 0.73 0.72 -53.4 0 0 145.70 436.93
  L 156.88 423.16
  Q 157.81 422.01 157.14 423.33
  Z
  M 178.2895 425.5730
  A 0.35 0.35 0.0 0 0 178.1539 425.0969
  L 171.3036 421.2840
  A 0.35 0.35 0.0 0 0 170.8275 421.4197
  L 157.9105 444.6270
  A 0.35 0.35 0.0 0 0 158.0461 445.1031
  L 164.8964 448.9160
  A 0.35 0.35 0.0 0 0 165.3725 448.7803
  L 178.2895 425.5730
  Z
  M 359.39 443.62
  L 366.44 452.64
  Q 366.64 452.89 366.92 452.74
  L 373.52 449.27
  A 0.17 0.16 54.4 0 0 373.56 449.01
  Q 367.08 442.28 360.21 435.36
  C 356.90 432.03 355.09 427.12 352.74 423.10
  Q 352.58 422.81 352.28 422.96
  L 346.00 426.32
  Q 345.66 426.50 345.83 426.84
  C 348.03 431.32 351.06 435.54 352.04 440.57
  Q 353.81 449.69 355.74 458.50
  A 0.18 0.18 0.0 0 0 356.00 458.62
  L 362.59 455.04
  Q 362.82 454.92 362.74 454.67
  L 359.17 443.74
  Q 358.95 443.06 359.39 443.62
  Z
  M 375.49 430.80
  A 4.35 4.35 0.0 0 0 371.14 426.45
  A 4.35 4.35 0.0 0 0 366.79 430.80
  A 4.35 4.35 0.0 0 0 371.14 435.15
  A 4.35 4.35 0.0 0 0 375.49 430.80
  Z
  M 170.99 452.25
  L 169.78 455.06
  Q 169.54 455.61 170.08 455.87
  L 176.34 458.79
  Q 177.03 459.11 177.33 458.41
  L 178.46 455.80
  Q 178.64 455.38 179.09 455.45
  L 180.01 455.59
  Q 180.62 455.69 180.87 455.12
  L 181.90 452.79
  Q 182.19 452.12 181.53 451.80
  L 181.24 451.66
  Q 180.59 451.35 180.90 450.70
  Q 184.49 443.08 187.83 435.79
  C 190.41 430.17 184.49 428.61 180.77 426.85
  A 0.65 0.65 0.0 0 0 179.90 427.16
  L 178.55 430.05
  Q 178.26 430.66 178.88 430.92
  L 179.86 431.33
  A 0.82 0.82 0.0 0 1 180.28 432.43
  L 173.38 447.22
  Q 173.07 447.90 172.41 447.53
  L 171.77 447.17
  Q 171.10 446.80 170.79 447.49
  L 169.55 450.18
  Q 169.29 450.75 169.86 451.02
  L 170.66 451.39
  Q 171.24 451.66 170.99 452.25
  Z
  M 346.2788 434.3369
  A 7.93 7.93 0.0 0 0 335.8516 430.2085
  L 333.0800 431.4078
  A 7.93 7.93 0.0 0 0 328.9516 441.8350
  L 333.7412 452.9031
  A 7.93 7.93 0.0 0 0 344.1684 457.0315
  L 346.9400 455.8322
  A 7.93 7.93 0.0 0 0 351.0684 445.4050
  L 346.2788 434.3369
  Z
  M 199.42 436.23
  Q 199.77 435.99 199.84 435.63
  Q 199.96 435.02 199.38 434.81
  L 192.96 432.50
  Q 192.40 432.29 192.19 432.86
  Q 189.07 441.26 185.70 451.08
  Q 183.58 457.27 189.10 460.32
  C 195.20 463.70 201.64 463.37 203.95 455.37
  Q 204.26 454.31 203.23 453.93
  L 198.17 452.08
  Q 196.80 451.57 196.46 452.99
  Q 195.98 454.92 195.04 456.56
  Q 194.42 457.64 193.36 456.98
  Q 193.00 456.75 192.99 456.32
  C 192.98 454.80 193.62 451.28 195.56 451.09
  Q 198.99 450.74 202.51 450.62
  Q 205.36 450.52 206.65 447.69
  C 207.75 445.25 209.43 440.77 207.97 438.69
  C 206.11 436.02 202.55 434.89 199.94 436.73
  Q 199.78 436.84 199.58 436.83
  Q 199.42 436.82 199.33 436.65
  Q 199.18 436.40 199.42 436.23
  Z
  M 314.29 439.69
  L 314.06 438.99
  A 0.61 0.61 0.0 0 0 313.30 438.60
  L 306.43 440.68
  Q 305.92 440.84 306.07 441.35
  L 313.46 466.28
  Q 313.64 466.90 314.26 466.71
  L 321.13 464.67
  Q 321.58 464.54 321.45 464.09
  L 315.45 443.82
  Q 315.16 442.84 316.07 442.37
  Q 316.52 442.14 317.01 442.23
  A 0.95 0.95 0.0 0 1 317.76 442.89
  L 323.89 463.38
  Q 324.02 463.81 324.46 463.68
  L 331.53 461.59
  Q 331.91 461.48 331.80 461.10
  Q 328.84 450.80 325.69 440.59
  C 324.58 436.99 321.95 435.27 318.03 436.74
  Q 315.77 437.58 314.78 439.72
  Q 314.50 440.33 314.29 439.69
  Z
  M 218.49 454.47
  L 209.23 452.21
  Q 208.69 452.08 208.51 452.61
  Q 207.04 457.15 207.16 460.92
  C 207.32 465.83 212.23 468.35 216.65 468.75
  C 221.07 469.15 224.24 467.13 225.39 462.90
  Q 226.97 457.12 228.17 451.44
  C 229.46 445.34 225.52 441.95 220.16 440.86
  C 213.53 439.51 210.20 443.47 209.19 449.49
  Q 209.05 450.34 209.89 450.55
  L 215.51 451.90
  Q 216.78 452.21 216.99 450.91
  Q 217.31 448.86 217.92 446.95
  Q 218.49 445.16 220.31 445.92
  A 0.74 0.73 17.9 0 1 220.75 446.76
  L 219.15 454.05
  A 0.55 0.54 -77.1 0 1 218.49 454.47
  Z
  M 298.58 468.35
  Q 298.72 469.09 298.66 469.86
  Q 298.60 470.52 299.25 470.40
  L 306.37 469.09
  Q 306.93 468.99 306.83 468.43
  L 302.07 442.51
  Q 302.03 442.28 301.80 442.32
  L 294.16 443.70
  Q 293.94 443.74 293.98 443.96
  Q 294.88 449.24 295.94 454.81
  C 296.51 457.83 297.76 461.41 293.19 462.24
  Q 292.34 462.40 292.50 463.24
  L 294.01 471.44
  A 0.42 0.42 0.0 0 0 294.58 471.75
  Q 296.94 470.76 298.00 468.29
  Q 298.40 467.38 298.58 468.35
  Z
  M 232.87 468.23
  L 232.48 469.96
  Q 232.35 470.57 232.96 470.65
  L 239.93 471.58
  Q 240.57 471.67 240.66 471.03
  L 244.25 445.12
  Q 244.29 444.84 244.00 444.79
  L 236.30 443.68
  Q 236.10 443.66 236.07 443.86
  Q 235.23 450.48 234.07 457.99
  C 233.60 461.03 231.89 460.93 229.41 460.99
  Q 228.79 461.00 228.71 461.62
  L 227.53 469.97
  Q 227.45 470.56 228.04 470.49
  Q 230.91 470.13 232.49 468.05
  Q 233.09 467.27 232.87 468.23
  Z
  M 254.02 472.63
  L 254.34 464.50
  Q 254.35 464.33 254.17 464.32
  L 246.08 463.91
  Q 245.91 463.90 245.89 464.06
  Q 243.87 476.24 250.91 478.63
  C 255.25 480.10 260.37 479.95 263.61 476.52
  Q 265.43 474.60 265.63 472.16
  Q 266.23 465.10 266.37 455.61
  C 266.42 452.24 266.05 448.32 262.82 446.57
  Q 257.86 443.90 252.45 445.38
  C 246.38 447.05 246.06 452.10 245.92 457.33
  Q 245.90 458.38 246.95 458.44
  L 253.29 458.80
  Q 254.71 458.88 254.57 457.47
  Q 254.38 455.55 254.92 451.83
  Q 255.11 450.55 256.40 450.45
  Q 256.58 450.44 256.75 450.48
  Q 257.63 450.68 257.65 451.59
  Q 257.84 462.40 257.02 472.91
  Q 256.95 473.71 256.15 473.70
  L 255.01 473.68
  Q 253.98 473.66 254.02 472.63
  Z
  M 164.1601 450.9528
  A 0.47 0.47 0.0 0 0 163.9758 450.3142
  L 157.3223 446.6413
  A 0.47 0.47 0.0 0 0 156.6837 446.8256
  L 155.0599 449.7672
  A 0.47 0.47 0.0 0 0 155.2442 450.4058
  L 161.8977 454.0787
  A 0.47 0.47 0.0 0 0 162.5363 453.8944
  L 164.1601 450.9528
  Z
  M 285.90 462.78
  A 4.34 4.34 0.0 0 0 281.56 458.44
  A 4.34 4.34 0.0 0 0 277.22 462.78
  A 4.34 4.34 0.0 0 0 281.56 467.12
  A 4.34 4.34 0.0 0 0 285.90 462.78
  Z"
/>
<path fill="#f3e300" d="
  M 267.01 115.27
  Q 252.81 114.15 240.62 115.92
  A 0.47 0.46 -5.7 0 1 240.09 115.49
  L 236.41 51.31
  A 0.63 0.62 86.2 0 1 236.98 50.65
  Q 258.72 48.65 280.59 50.71
  A 0.49 0.49 0.0 0 1 281.03 51.30
  L 267.36 115.01
  Q 267.30 115.29 267.01 115.27
  Z"
/>
<path fill="#ffffff" d="
  M 299.96 64.93
  L 304.42 65.66
  A 0.40 0.40 0.0 0 1 304.75 66.13
  L 303.85 71.51
  A 0.40 0.40 0.0 0 1 303.39 71.84
  L 298.87 71.13
  A 0.40 0.40 0.0 0 0 298.41 71.46
  L 296.26 84.35
  A 0.40 0.40 0.0 0 1 295.79 84.68
  L 288.09 83.35
  A 0.40 0.40 0.0 0 1 287.77 82.89
  L 293.22 51.06
  A 0.40 0.40 0.0 0 1 293.69 50.73
  L 307.27 53.10
  A 0.40 0.40 0.0 0 1 307.59 53.56
  L 306.59 59.28
  A 0.40 0.40 0.0 0 1 306.12 59.61
  L 301.05 58.68
  A 0.40 0.40 0.0 0 0 300.58 59.01
  L 299.63 64.46
  A 0.40 0.40 0.0 0 0 299.96 64.93
  Z"
/>
<rect fill="#ffffff" x="-4.28" y="-16.61" transform="translate(311.59,71.28) rotate(14.1)" width="8.56" height="33.22" rx="0.45"/>
<path fill="#ffffff" d="
  M 324.41 91.87
  Q 325.15 90.42 323.78 91.31
  C 320.30 93.58 314.55 90.30 315.46 85.89
  C 316.04 83.12 317.28 77.53 320.91 77.26
  Q 324.77 76.97 328.53 76.67
  A 1.12 1.10 -76.4 0 0 329.41 76.12
  Q 330.60 74.14 330.77 71.96
  Q 330.83 71.25 330.29 70.80
  Q 329.75 70.34 329.09 70.62
  A 0.88 0.87 88.6 0 0 328.58 71.16
  L 327.21 75.01
  Q 326.83 76.07 325.76 75.71
  L 320.62 74.00
  Q 319.32 73.56 319.80 72.27
  Q 320.69 69.91 321.99 68.00
  C 325.21 63.26 333.37 65.98 336.78 68.93
  C 339.48 71.27 338.78 74.82 337.77 77.82
  Q 334.77 86.69 331.97 94.78
  Q 331.73 95.47 331.03 95.23
  L 324.61 92.99
  Q 323.96 92.76 324.27 92.15
  L 324.41 91.87
  Z
  M 327.26 80.69
  C 324.71 81.56 323.68 84.37 323.30 87.19
  A 0.93 0.93 0.0 0 0 323.90 88.19
  Q 325.20 88.67 325.69 87.36
  Q 326.74 84.52 327.86 81.29
  Q 328.17 80.37 327.26 80.69
  Z"
/>
<path fill="#ffffff" d="
  M 352.27 81.02
  A 0.94 0.93 -66.4 0 0 351.78 79.75
  L 351.45 79.62
  A 1.37 1.37 0.0 0 0 349.75 80.20
  C 346.53 85.70 356.29 88.72 354.17 95.34
  C 352.87 99.42 350.25 103.15 345.27 101.97
  C 341.02 100.97 334.53 97.22 336.40 91.92
  Q 336.94 90.40 337.53 88.83
  Q 337.94 87.74 338.99 88.26
  L 343.77 90.67
  Q 345.02 91.29 344.12 92.36
  Q 343.07 93.61 343.10 95.21
  Q 343.12 96.95 344.72 96.27
  Q 346.39 95.57 346.60 93.15
  Q 346.70 92.11 345.98 91.15
  Q 343.87 88.34 342.24 85.67
  C 340.16 82.26 341.98 77.90 344.43 75.32
  C 347.84 71.72 354.88 75.35 357.45 78.04
  Q 360.87 81.61 357.80 86.54
  Q 357.39 87.19 356.69 86.86
  L 351.62 84.49
  Q 350.83 84.13 351.20 83.33
  L 352.27 81.02
  Z"
/>
<path fill="#ffffff" d="
  M 372.39 87.29
  C 375.63 86.96 379.69 89.10 379.91 92.62
  Q 380.03 94.52 378.79 96.55
  Q 372.93 106.07 367.70 114.40
  Q 367.43 114.83 367.00 114.57
  L 360.94 110.84
  Q 360.43 110.53 360.74 110.03
  L 371.69 92.39
  A 0.75 0.71 66.4 0 0 371.80 92.08
  Q 371.97 90.61 371.35 90.45
  Q 370.10 90.13 369.45 91.16
  Q 363.95 99.92 358.53 108.70
  Q 358.26 109.13 357.83 108.86
  L 351.73 105.09
  A 0.57 0.57 0.0 0 1 351.55 104.30
  L 368.14 77.66
  Q 368.74 76.70 369.69 77.30
  L 374.97 80.63
  Q 375.71 81.09 375.25 81.83
  L 372.11 86.83
  A 0.30 0.30 0.0 0 0 372.39 87.29
  Z"
/>
<path fill="#db6447" d="
  M 323.30 87.19
  C 323.68 84.37 324.71 81.56 327.26 80.69
  Q 328.17 80.37 327.86 81.29
  Q 326.74 84.52 325.69 87.36
  Q 325.20 88.67 323.90 88.19
  A 0.93 0.93 0.0 0 1 323.30 87.19
  Z"
/>
<path fill="#f3e300" d="
  M 178.61 138.02
  Q 163.59 147.67 151.56 160.95
  A 0.53 0.53 0.0 0 1 150.79 160.96
  L 105.93 114.31
  A 0.38 0.38 0.0 0 1 105.93 113.79
  Q 121.18 98.28 139.43 85.37
  Q 139.87 85.06 140.19 85.49
  L 178.75 137.24
  A 0.54 0.54 0.0 0 1 178.61 138.02
  Z"
/>
<path fill="#ffffff" d="
  M 412.13 125.87
  L 395.37 138.37
  Q 394.76 138.83 394.25 138.25
  L 391.66 135.29
  Q 391.22 134.79 391.63 134.26
  Q 398.28 125.70 404.13 117.96
  Q 404.16 117.91 404.12 117.87
  Q 402.92 116.81 404.07 117.82
  Q 404.10 117.84 404.07 117.87
  L 389.26 132.33
  A 0.40 0.40 0.0 0 1 388.70 132.32
  L 383.88 127.55
  Q 383.63 127.31 383.88 127.06
  L 406.80 104.63
  Q 407.41 104.04 408.00 104.66
  L 414.77 111.77
  Q 415.15 112.17 414.81 112.61
  L 406.82 123.06
  Q 405.67 124.56 407.17 123.42
  L 417.60 115.46
  Q 418.13 115.05 418.60 115.54
  L 425.49 122.68
  Q 425.95 123.17 425.47 123.64
  L 402.62 145.91
  Q 402.32 146.20 402.02 145.91
  L 397.26 141.17
  Q 396.93 140.84 397.27 140.53
  Q 404.70 133.58 412.15 125.89
  Q 412.28 125.76 412.13 125.87
  Z"
/>
<circle fill="#ffffff" cx="388.34" cy="109.87" r="4.35"/>
<path fill="#f3e300" d="
  M 387.13 257.85
  A 129.19 129.19 0.0 0 1 257.94 387.04
  A 129.19 129.19 0.0 0 1 128.75 257.85
  A 129.19 129.19 0.0 0 1 257.94 128.66
  A 129.19 129.19 0.0 0 1 387.13 257.85
  Z
  M 240.26 225.21
  L 273.27 230.76
  A 0.82 0.82 0.0 0 0 274.21 230.14
  L 278.96 210.81
  A 0.70 0.69 7.6 0 0 278.30 209.95
  L 241.78 209.10
  Q 241.20 209.09 241.26 208.52
  L 242.87 193.73
  Q 242.98 192.70 244.02 192.74
  L 280.39 193.96
  A 0.95 0.94 -81.6 0 0 281.34 193.25
  L 290.86 155.74
  A 0.60 0.60 0.0 0 0 290.24 155.00
  L 220.83 159.23
  A 0.94 0.94 0.0 0 0 219.94 160.18
  L 221.11 243.28
  A 0.77 0.77 0.0 0 1 220.51 244.04
  C 212.98 245.84 206.85 249.62 201.95 255.93
  C 195.26 264.52 193.45 279.12 205.84 283.85
  C 222.36 290.16 245.56 271.92 241.30 253.97
  Q 240.52 250.70 238.13 248.48
  Q 237.59 247.98 237.66 247.25
  L 239.55 225.76
  Q 239.61 225.10 240.26 225.21
  Z
  M 259.77 322.17
  Q 286.26 324.01 313.48 326.05
  C 315.18 326.17 316.42 324.44 317.67 323.49
  Q 318.90 322.56 318.98 321.12
  Q 320.34 296.20 321.56 272.95
  Q 321.64 271.47 322.39 272.75
  Q 336.43 296.79 348.52 317.70
  Q 348.66 317.95 348.88 318.15
  Q 349.34 318.58 349.20 317.96
  L 332.28 241.37
  A 0.44 0.44 0.0 0 0 331.67 241.06
  L 307.04 251.83
  A 1.06 1.05 79.7 0 0 306.41 252.75
  L 303.56 308.03
  A 0.60 0.60 0.0 0 1 302.91 308.60
  Q 275.22 306.62 248.84 304.76
  Q 246.46 304.60 243.93 304.58
  Q 243.41 304.58 243.12 305.01
  L 228.37 327.14
  A 0.52 0.52 0.0 0 0 228.61 327.91
  L 300.51 358.22
  Q 302.01 358.85 300.77 357.79
  L 259.57 322.67
  Q 258.91 322.11 259.77 322.17
  Z"
/>
<path fill="#ffffff" d="
  M 417.54 146.11
  L 412.05 150.43
  A 0.92 0.90 68.8 0 0 411.71 151.22
  Q 411.78 152.20 412.40 152.43
  A 1.99 1.88 -49.4 0 0 414.10 152.25
  Q 416.01 151.05 417.72 149.59
  Q 418.44 148.98 419.02 149.73
  L 422.72 154.54
  Q 423.36 155.37 422.52 156.00
  Q 419.70 158.10 417.32 158.84
  C 412.53 160.31 408.42 156.45 406.59 152.33
  Q 403.95 146.41 409.16 142.22
  Q 414.01 138.32 418.49 135.17
  C 424.36 131.05 430.30 135.42 432.25 141.02
  C 434.38 147.14 429.69 150.87 425.11 153.85
  Q 424.65 154.15 424.31 153.71
  L 418.67 146.25
  Q 418.18 145.60 417.54 146.11
  Z
  M 426.5299 140.6793
  A 1.04 1.04 0.0 0 0 425.0720 140.4848
  L 422.4981 142.4527
  A 1.04 1.04 0.0 0 0 422.3036 143.9106
  L 422.5101 144.1807
  A 1.04 1.04 0.0 0 0 423.9680 144.3752
  L 426.5419 142.4073
  A 1.04 1.04 0.0 0 0 426.7364 140.9494
  L 426.5299 140.6793
  Z"
/>
<rect fill="#db6447" x="-2.66" y="-1.21" transform="translate(424.52,142.43) rotate(-37.4)" width="5.32" height="2.42" rx="1.04"/>
<rect fill="#ffffff" x="-16.58" y="-4.25" transform="translate(431.57,159.05) rotate(-32.1)" width="33.16" height="8.50" rx="0.42"/>
<path fill="#ffffff" d="
  M 239.55 225.76
  L 237.66 247.25
  Q 237.59 247.98 238.13 248.48
  Q 240.52 250.70 241.30 253.97
  C 245.56 271.92 222.36 290.16 205.84 283.85
  C 193.45 279.12 195.26 264.52 201.95 255.93
  C 206.85 249.62 212.98 245.84 220.51 244.04
  A 0.77 0.77 0.0 0 0 221.11 243.28
  L 219.94 160.18
  A 0.94 0.94 0.0 0 1 220.83 159.23
  L 290.24 155.00
  A 0.60 0.60 0.0 0 1 290.86 155.74
  L 281.34 193.25
  A 0.95 0.94 -81.6 0 1 280.39 193.96
  L 244.02 192.74
  Q 242.98 192.70 242.87 193.73
  L 241.26 208.52
  Q 241.20 209.09 241.78 209.10
  L 278.30 209.95
  A 0.70 0.69 7.6 0 1 278.96 210.81
  L 274.21 230.14
  A 0.82 0.82 0.0 0 1 273.27 230.76
  L 240.26 225.21
  Q 239.61 225.10 239.55 225.76
  Z"
/>
<path fill="#ffffff" d="
  M 450.4616 170.3281
  A 7.95 7.95 0.0 0 1 447.0060 181.0269
  L 436.3056 186.5025
  A 7.95 7.95 0.0 0 1 425.6068 183.0469
  L 424.2584 180.4119
  A 7.95 7.95 0.0 0 1 427.7140 169.7131
  L 438.4144 164.2375
  A 7.95 7.95 0.0 0 1 449.1132 167.6931
  L 450.4616 170.3281
  Z
  M 445.6041 171.1332
  A 1.17 1.17 0.0 0 0 444.0296 170.6246
  L 429.6971 177.9589
  A 1.17 1.17 0.0 0 0 429.1886 179.5334
  L 429.2159 179.5868
  A 1.17 1.17 0.0 0 0 430.7904 180.0954
  L 445.1229 172.7611
  A 1.17 1.17 0.0 0 0 445.6314 171.1866
  L 445.6041 171.1332
  Z"
/>
<rect fill="#db6447" x="-9.22" y="-1.20" transform="translate(437.41,175.36) rotate(-27.1)" width="18.44" height="2.40" rx="1.17"/>
<path fill="#ffffff" d="
  M 458.30 191.76
  A 0.32 0.32 0.0 0 0 458.71 192.16
  L 463.99 190.17
  Q 465.19 189.71 465.65 190.92
  L 467.64 196.22
  Q 468.10 197.44 466.87 197.90
  L 437.57 208.80
  Q 437.09 208.98 436.90 208.50
  L 434.40 201.90
  Q 434.16 201.26 434.82 201.09
  Q 435.11 201.02 435.36 200.85
  Q 435.97 200.43 435.30 200.12
  C 430.61 197.96 429.93 191.38 435.28 189.36
  Q 443.77 186.15 451.44 183.39
  C 456.80 181.46 459.79 187.46 458.30 191.76
  Z
  M 455.1500 192.0711
  A 1.22 1.22 0.0 0 0 453.5813 191.3528
  L 438.5473 196.9439
  A 1.22 1.22 0.0 0 0 437.8291 198.5127
  L 437.8500 198.5689
  A 1.22 1.22 0.0 0 0 439.4187 199.2872
  L 454.4527 193.6961
  A 1.22 1.22 0.0 0 0 455.1709 192.1273
  L 455.1500 192.0711
  Z"
/>
<rect fill="#db6447" x="-9.24" y="-1.25" transform="translate(446.50,195.32) rotate(-20.4)" width="18.48" height="2.50" rx="1.22"/>
<path fill="#f3e300" d="
  M 115.98 240.74
  L 51.27 243.12
  Q 50.27 243.15 50.35 242.15
  Q 52.12 220.50 57.88 199.51
  Q 58.00 199.06 58.46 199.16
  L 121.05 213.93
  A 0.54 0.54 0.0 0 1 121.44 214.62
  Q 117.48 227.35 116.27 240.47
  Q 116.24 240.73 115.98 240.74
  Z"
/>
<path fill="#ffffff" d="
  M 449.63 217.29
  L 466.21 214.36
  Q 466.49 214.31 466.55 214.59
  L 468.17 221.30
  A 0.26 0.26 0.0 0 1 467.95 221.62
  Q 456.50 223.14 443.09 224.73
  C 436.25 225.55 435.34 218.88 434.13 213.14
  Q 434.02 212.63 434.53 212.49
  L 437.82 211.64
  Q 438.26 211.53 438.36 211.97
  L 438.66 213.22
  Q 439.02 214.78 440.47 214.09
  L 463.30 203.26
  A 0.28 0.27 -19.9 0 1 463.68 203.43
  L 465.37 210.18
  Q 465.44 210.47 465.16 210.58
  Q 457.23 213.67 449.55 217.03
  Q 448.50 217.49 449.63 217.29
  Z"
/>
<circle fill="#ffffff" cx="460.60" cy="236.63" r="4.36"/>
<path fill="#db6447" d="
  M 259.77 322.17
  Q 258.91 322.11 259.57 322.67
  L 300.77 357.79
  Q 302.01 358.85 300.51 358.22
  L 228.61 327.91
  A 0.52 0.52 0.0 0 1 228.37 327.14
  L 243.12 305.01
  Q 243.41 304.58 243.93 304.58
  Q 246.46 304.60 248.84 304.76
  Q 275.22 306.62 302.91 308.60
  A 0.60 0.60 0.0 0 0 303.56 308.03
  L 306.41 252.75
  A 1.06 1.05 79.7 0 1 307.04 251.83
  L 331.67 241.06
  A 0.44 0.44 0.0 0 1 332.28 241.37
  L 349.20 317.96
  Q 349.34 318.58 348.88 318.15
  Q 348.66 317.95 348.52 317.70
  Q 336.43 296.79 322.39 272.75
  Q 321.64 271.47 321.56 272.95
  Q 320.34 296.20 318.98 321.12
  Q 318.90 322.56 317.67 323.49
  C 316.42 324.44 315.18 326.17 313.48 326.05
  Q 286.26 324.01 259.77 322.17
  Z"
/>
<path fill="#ffffff" d="
  M 451.73 260.54
  L 451.74 266.10
  A 0.31 0.31 0.0 0 1 451.45 266.41
  L 445.56 266.72
  A 0.31 0.31 0.0 0 1 445.23 266.42
  L 444.76 252.08
  A 0.31 0.31 0.0 0 1 445.06 251.76
  L 477.71 250.85
  A 0.31 0.31 0.0 0 1 478.03 251.15
  L 478.33 264.91
  A 0.31 0.31 0.0 0 1 478.03 265.23
  L 472.10 265.42
  A 0.31 0.31 0.0 0 1 471.78 265.12
  L 471.58 260.06
  A 0.31 0.31 0.0 0 0 471.27 259.76
  L 465.54 259.71
  A 0.31 0.31 0.0 0 0 465.23 260.04
  L 465.46 264.90
  A 0.31 0.31 0.0 0 1 465.16 265.23
  L 459.32 265.33
  A 0.31 0.31 0.0 0 1 459.00 265.02
  L 458.99 260.23
  A 0.31 0.31 0.0 0 0 458.67 259.92
  L 452.03 260.23
  A 0.31 0.31 0.0 0 0 451.73 260.54
  Z"
/>
<path fill="#ffffff" d="
  M 70.24 272.74
  Q 72.14 272.31 70.19 272.28
  L 54.26 271.97
  Q 54.07 271.96 54.06 271.77
  L 53.68 264.73
  Q 53.67 264.49 53.91 264.50
  Q 67.73 265.24 79.82 266.56
  Q 84.10 267.02 84.88 271.58
  Q 85.46 274.97 85.43 279.40
  Q 85.42 280.06 84.77 280.10
  L 81.81 280.29
  A 0.76 0.76 0.0 0 1 81.00 279.56
  L 80.94 278.08
  A 0.91 0.91 0.0 0 0 79.82 277.23
  L 54.76 283.41
  Q 54.62 283.44 54.61 283.29
  L 54.23 276.07
  A 0.24 0.23 -7.2 0 1 54.42 275.83
  Q 62.76 274.43 70.24 272.74
  Z"
/>
<path fill="#ffffff" d="
  M 469.70 281.52
  C 470.21 282.23 471.05 282.88 471.24 283.75
  C 472.20 288.12 470.14 291.66 465.60 291.31
  Q 453.31 290.39 443.88 289.45
  Q 443.48 289.41 443.52 289.02
  L 444.12 281.83
  A 0.57 0.57 0.0 0 1 444.73 281.31
  L 465.68 283.07
  Q 466.68 283.15 466.95 282.18
  Q 467.03 281.88 466.94 281.57
  Q 466.67 280.65 465.73 280.57
  L 444.80 278.72
  Q 444.42 278.68 444.45 278.30
  L 445.07 270.94
  Q 445.10 270.48 445.57 270.52
  L 471.71 272.79
  A 0.45 0.45 0.0 0 1 472.12 273.28
  L 471.45 280.76
  Q 471.41 281.19 470.98 281.15
  L 469.97 281.05
  Q 469.31 280.98 469.70 281.52
  Z"
/>
<path fill="#ffffff" d="
  M 61.59 297.73
  L 61.80 298.48
  Q 61.91 298.86 61.52 298.92
  L 58.02 299.48
  Q 57.47 299.57 57.39 299.02
  L 57.32 298.45
  Q 57.22 297.70 56.47 297.82
  L 53.93 298.23
  Q 53.03 298.38 52.90 297.47
  L 52.01 290.98
  Q 51.89 290.11 52.77 289.99
  L 55.47 289.64
  Q 56.06 289.56 56.00 288.97
  L 55.90 287.91
  Q 55.85 287.31 56.44 287.23
  L 59.47 286.80
  Q 60.21 286.69 60.17 287.44
  L 60.11 288.54
  A 0.39 0.38 -1.9 0 0 60.55 288.94
  L 77.23 286.60
  A 0.58 0.57 86.0 0 0 77.72 286.03
  L 77.71 284.49
  Q 77.71 283.92 78.27 283.85
  L 81.31 283.46
  Q 82.02 283.37 82.11 284.09
  C 82.56 287.54 84.36 293.83 79.02 294.66
  Q 70.37 296.01 62.07 297.00
  Q 61.40 297.08 61.59 297.73
  Z"
/>
<path fill="#ffffff" d="
  M 462.50 305.97
  Q 463.64 306.15 463.86 305.01
  L 463.91 304.76
  A 0.90 0.89 -79.2 0 0 463.21 303.72
  L 447.25 300.47
  A 1.32 1.32 0.0 0 0 445.92 300.98
  Q 445.47 301.60 445.52 302.07
  Q 445.61 303.00 446.52 303.20
  L 451.19 304.24
  Q 452.04 304.43 451.87 305.28
  L 450.77 310.81
  Q 450.56 311.88 449.53 311.52
  C 447.72 310.89 445.74 310.75 444.15 309.62
  Q 439.84 306.57 440.87 300.63
  C 442.30 292.35 447.39 292.01 454.47 293.45
  Q 458.28 294.23 461.97 295.02
  C 465.50 295.78 467.89 297.33 468.63 300.91
  C 469.49 305.06 467.84 311.63 463.17 312.90
  Q 461.06 313.47 457.45 313.15
  Q 456.18 313.03 456.43 311.77
  L 457.59 306.04
  Q 457.75 305.25 458.55 305.37
  L 462.50 305.97
  Z"
/>
<rect fill="#ffffff" x="-13.57" y="-4.26" transform="translate(72.02,305.25) rotate(-12.1)" width="27.14" height="8.52" rx="0.36"/>
<rect fill="#ffffff" x="-2.15" y="-4.28" transform="translate(54.99,308.91) rotate(-11.8)" width="4.30" height="8.56" rx="0.41"/>
<path fill="#ffffff" d="
  M 80.02 318.51
  L 62.77 321.99
  Q 62.16 322.11 61.99 321.52
  L 60.15 315.45
  Q 60.01 315.00 60.48 314.93
  L 86.66 310.98
  Q 87.23 310.89 87.40 311.45
  L 90.24 320.72
  A 0.59 0.59 0.0 0 1 89.93 321.42
  L 65.88 332.85
  A 0.35 0.34 68.2 0 1 65.40 332.64
  L 63.49 326.45
  Q 63.32 325.89 63.87 325.66
  Q 72.56 322.16 80.13 318.87
  Q 81.77 318.15 80.02 318.51
  Z"
/>
<path fill="#ffffff" d="
  M 462.2079 330.2422
  A 7.97 7.97 0.0 0 1 452.1034 335.2362
  L 440.6042 331.3440
  A 7.97 7.97 0.0 0 1 435.6102 321.2394
  L 436.5721 318.3978
  A 7.97 7.97 0.0 0 1 446.6766 313.4038
  L 458.1758 317.2960
  A 7.97 7.97 0.0 0 1 463.1698 327.4006
  L 462.2079 330.2422
  Z
  M 458.2159 327.1722
  A 1.17 1.17 0.0 0 0 457.4596 325.7005
  L 442.0541 320.7544
  A 1.17 1.17 0.0 0 0 440.5825 321.5107
  L 440.5641 321.5678
  A 1.17 1.17 0.0 0 0 441.3204 323.0395
  L 456.7259 327.9856
  A 1.17 1.17 0.0 0 0 458.1975 327.2293
  L 458.2159 327.1722
  Z"
/>
<path fill="#ffffff" d="
  M 396.58 352.46
  L 374.17 325.59
  A 0.40 0.40 0.0 0 1 374.12 325.15
  L 377.95 317.72
  A 0.40 0.40 0.0 0 1 378.62 317.64
  L 405.97 350.46
  A 0.40 0.40 0.0 0 1 406.07 350.75
  L 405.58 356.37
  A 0.40 0.40 0.0 0 1 405.44 356.65
  L 327.68 421.50
  A 0.40 0.40 0.0 0 1 327.38 421.59
  L 321.77 421.07
  A 0.40 0.40 0.0 0 1 321.50 420.92
  L 294.13 388.11
  A 0.40 0.40 0.0 0 1 294.32 387.47
  L 302.32 385.05
  A 0.40 0.40 0.0 0 1 302.74 385.17
  L 325.15 412.04
  A 0.40 0.40 0.0 0 0 325.72 412.09
  L 396.53 353.03
  A 0.40 0.40 0.0 0 0 396.58 352.46
  Z"
/>
<rect fill="#db6447" x="-9.26" y="-1.20" transform="translate(449.39,324.37) rotate(17.8)" width="18.52" height="2.40" rx="1.17"/>
<rect fill="#ffffff" x="-13.56" y="-4.25" transform="translate(81.04,335.61) rotate(-21.4)" width="27.12" height="8.50" rx="0.44"/>
<path fill="#ffffff" d="
  M 429.57 340.62
  Q 430.56 341.21 430.08 340.16
  Q 428.90 337.54 430.21 335.09
  Q 432.81 330.23 437.81 332.48
  Q 447.92 337.02 457.18 341.22
  Q 457.73 341.47 457.48 342.02
  L 454.61 348.38
  Q 454.33 349.00 453.71 348.72
  L 434.88 340.21
  Q 433.79 339.72 433.02 340.65
  Q 432.79 340.93 432.74 341.33
  A 0.85 0.83 16.2 0 0 433.23 342.20
  L 452.86 351.15
  A 0.47 0.47 0.0 0 1 453.09 351.78
  L 450.08 358.32
  Q 449.83 358.86 449.29 358.62
  L 425.64 347.86
  Q 425.07 347.60 425.32 347.03
  L 428.21 340.64
  Q 428.50 339.99 429.12 340.35
  L 429.57 340.62
  Z"
/>
<rect fill="#ffffff" x="-2.15" y="-4.25" transform="translate(64.83,341.96) rotate(-21.2)" width="4.30" height="8.50" rx="0.28"/>
<path fill="#ffffff" d="
  M 73.26 350.74
  L 72.71 349.80
  Q 72.37 349.23 72.99 348.97
  L 75.83 347.78
  Q 76.55 347.48 76.74 348.23
  Q 76.86 348.68 77.11 349.05
  Q 77.37 349.43 77.79 349.23
  L 92.42 342.19
  A 0.97 0.96 -15.4 0 0 92.96 341.25
  Q 92.91 340.65 92.60 340.13
  Q 92.13 339.34 92.97 338.99
  L 95.71 337.84
  Q 96.38 337.56 96.65 338.24
  C 97.94 341.38 101.72 346.71 96.91 349.14
  Q 89.39 352.94 81.64 356.47
  A 0.78 0.78 0.0 0 0 81.19 357.31
  Q 81.24 357.67 81.44 357.97
  A 0.59 0.59 0.0 0 1 81.19 358.84
  L 78.34 360.06
  Q 77.77 360.30 77.53 359.73
  Q 77.31 359.24 76.83 359.06
  Q 76.43 358.92 76.05 359.13
  L 73.96 360.32
  Q 73.24 360.73 72.89 359.99
  L 69.96 353.84
  Q 69.63 353.16 70.31 352.82
  L 73.04 351.49
  Q 73.55 351.24 73.26 350.74
  Z"
/>
<rect fill="#ffffff" x="-9.13" y="-7.64" transform="translate(369.53,349.29) rotate(-39.8)" width="18.26" height="15.28" rx="0.50"/>
<path fill="#ffffff" d="
  M 440.16 369.80
  Q 441.40 372.16 440.92 375.00
  Q 440.79 375.76 440.13 375.38
  L 432.57 370.99
  Q 432.03 370.67 432.40 370.17
  C 435.40 366.21 431.01 364.35 428.34 362.81
  Q 423.78 360.20 419.29 357.56
  Q 419.08 357.44 419.20 357.23
  L 423.11 350.56
  Q 423.28 350.28 423.56 350.45
  L 446.20 363.70
  Q 446.75 364.02 446.43 364.58
  L 442.84 370.62
  Q 442.50 371.20 441.97 370.79
  L 440.40 369.60
  Q 439.81 369.15 440.16 369.80
  Z"
/>
<path fill="#ffffff" d="
  M 87.07 367.38
  Q 86.58 368.23 86.93 368.58
  A 1.50 1.45 -37.1 0 0 88.73 368.80
  Q 95.20 364.99 101.72 361.05
  Q 102.76 360.43 102.74 359.22
  Q 102.74 359.06 102.68 358.91
  Q 102.24 357.89 101.20 358.28
  Q 98.83 359.16 96.81 360.72
  A 0.73 0.73 0.0 0 1 95.74 360.51
  L 92.56 355.19
  Q 92.25 354.69 92.78 354.42
  C 97.03 352.28 100.38 350.44 104.42 353.60
  C 107.49 356.00 109.91 361.25 108.20 365.03
  Q 107.20 367.25 104.30 369.10
  Q 98.89 372.55 93.64 375.40
  C 85.84 379.62 77.49 366.73 83.11 360.98
  Q 84.62 359.44 86.49 358.14
  Q 87.29 357.59 87.79 358.43
  L 90.83 363.52
  Q 91.32 364.34 90.52 364.85
  L 87.86 366.55
  Q 87.37 366.87 87.07 367.38
  Z"
/>
<path fill="#ffffff" d="
  M 411.53 372.09
  Q 410.39 367.80 414.60 365.27
  C 417.82 363.34 421.93 366.88 424.34 369.02
  Q 426.11 370.59 425.66 372.82
  Q 424.90 376.62 424.01 380.21
  Q 423.85 380.85 424.28 381.37
  Q 425.74 383.10 427.78 383.87
  Q 428.48 384.13 429.10 383.72
  Q 429.59 383.39 429.63 382.78
  A 0.80 0.79 20.5 0 0 429.31 382.09
  L 426.02 379.63
  Q 425.04 378.90 425.76 377.92
  L 429.12 373.33
  Q 429.63 372.63 430.33 373.14
  C 433.62 375.52 436.36 378.00 435.04 382.55
  C 433.86 386.64 429.90 391.96 425.04 391.30
  Q 423.40 391.08 419.35 388.22
  Q 412.68 383.52 405.64 378.37
  Q 405.17 378.02 405.51 377.55
  L 409.66 371.78
  Q 409.87 371.49 410.17 371.70
  L 411.13 372.37
  Q 411.71 372.78 411.53 372.09
  Z
  M 413.71 373.63
  L 419.94 378.80
  A 0.18 0.18 0.0 0 0 420.19 378.78
  L 420.24 378.73
  A 3.12 2.37 39.7 0 0 419.35 374.91
  L 417.64 373.49
  A 3.12 2.37 39.7 0 0 413.73 373.32
  L 413.68 373.38
  A 0.18 0.18 0.0 0 0 413.71 373.63
  Z"
/>
<path fill="#ffffff" d="
  M 112.59 376.24
  L 114.00 378.07
  A 0.49 0.49 0.0 0 0 114.66 378.17
  L 118.87 375.35
  A 0.49 0.49 0.0 0 1 119.53 375.45
  L 124.37 381.68
  A 0.49 0.49 0.0 0 1 124.23 382.41
  L 95.93 398.52
  A 0.49 0.49 0.0 0 1 95.30 398.39
  L 88.18 389.18
  A 0.49 0.49 0.0 0 1 88.22 388.54
  L 110.99 365.25
  A 0.49 0.49 0.0 0 1 111.73 365.30
  L 116.53 371.57
  A 0.49 0.49 0.0 0 1 116.47 372.23
  L 112.66 375.58
  A 0.49 0.49 0.0 0 0 112.59 376.24
  Z
  M 99.05 388.11
  L 108.83 382.41
  Q 109.62 381.95 109.08 381.21
  L 108.43 380.31
  Q 107.86 379.52 107.14 380.18
  L 98.82 387.80
  Q 97.50 389.01 99.05 388.11
  Z"
/>
<path fill="#db6447" d="
  M 413.71 373.63
  A 0.18 0.18 0.0 0 1 413.68 373.38
  L 413.73 373.32
  A 3.12 2.37 39.7 0 1 417.64 373.49
  L 419.35 374.91
  A 3.12 2.37 39.7 0 1 420.24 378.73
  L 420.19 378.78
  A 0.18 0.18 0.0 0 1 419.94 378.80
  L 413.71 373.63
  Z"
/>
<rect fill="#ffffff" x="-9.14" y="-7.63" transform="translate(326.16,385.43) rotate(-39.8)" width="18.28" height="15.26" rx="0.47"/>
<path fill="#ffffff" d="
  M 399.25 390.72
  Q 399.74 391.24 399.88 390.54
  C 400.94 385.55 405.68 382.02 410.28 386.09
  Q 414.16 389.53 418.33 393.37
  C 420.38 395.26 422.70 397.94 421.38 400.85
  Q 419.62 404.71 415.44 404.73
  A 0.38 0.38 0.0 0 0 415.10 405.26
  Q 415.29 405.69 415.64 406.04
  Q 416.06 406.46 415.66 406.89
  L 411.22 411.71
  Q 410.71 412.27 410.15 411.75
  Q 401.39 403.56 392.59 395.55
  C 386.96 390.42 393.73 382.64 398.13 380.08
  Q 401.51 378.11 404.54 380.78
  Q 405.03 381.21 404.59 381.70
  L 400.48 386.23
  A 1.91 1.41 -67.5 0 1 399.55 386.79
  Q 399.25 386.85 399.01 386.66
  Q 398.50 386.28 397.93 386.55
  Q 397.16 386.89 397.01 387.66
  A 1.13 1.12 29.2 0 0 397.29 388.64
  L 399.25 390.72
  Z
  M 413.9993 402.3130
  A 1.19 1.19 0.0 0 0 413.9347 400.6314
  L 404.7631 392.1383
  A 1.19 1.19 0.0 0 0 403.0814 392.2029
  L 403.0407 392.2470
  A 1.19 1.19 0.0 0 0 403.1053 393.9286
  L 412.2769 402.4217
  A 1.19 1.19 0.0 0 0 413.9586 402.3571
  L 413.9993 402.3130
  Z"
/>
<path fill="#db6447" d="
  M 108.83 382.41
  L 99.05 388.11
  Q 97.50 389.01 98.82 387.80
  L 107.14 380.18
  Q 107.86 379.52 108.43 380.31
  L 109.08 381.21
  Q 109.62 381.95 108.83 382.41
  Z"
/>
<rect fill="#db6447" x="-7.44" y="-1.22" transform="translate(408.52,397.28) rotate(42.8)" width="14.88" height="2.44" rx="1.19"/>
<circle fill="#ffffff" cx="117.03" cy="399.48" r="4.35"/>
<path fill="#ffffff" d="
  M 390.67 410.60
  L 386.29 405.56
  Q 385.68 404.85 384.77 405.09
  Q 384.44 405.19 384.23 405.43
  Q 383.41 406.42 384.23 407.41
  L 387.00 410.80
  Q 387.72 411.68 386.87 412.42
  L 382.74 416.02
  Q 381.73 416.89 380.89 415.86
  C 377.35 411.51 375.66 407.05 380.41 402.44
  C 384.19 398.77 389.21 397.00 393.49 401.42
  Q 398.00 406.07 401.75 411.09
  Q 405.45 416.04 401.51 421.03
  C 398.46 424.89 392.78 427.39 388.55 423.94
  Q 385.72 421.63 383.44 418.53
  Q 383.06 418.02 383.54 417.61
  L 390.59 411.60
  Q 391.13 411.14 390.67 410.60
  Z
  M 394.4826 415.1274
  A 0.95 0.95 0.0 0 0 393.1410 415.0570
  L 392.7991 415.3648
  A 0.95 0.95 0.0 0 0 392.7288 416.7065
  L 395.0574 419.2926
  A 0.95 0.95 0.0 0 0 396.3990 419.3630
  L 396.7409 419.0552
  A 0.95 0.95 0.0 0 0 396.8112 417.7135
  L 394.4826 415.1274
  Z"
/>
<path fill="#ffffff" d="
  M 141.24 415.65
  L 145.31 410.60
  A 1.77 1.76 -23.9 0 0 145.71 409.57
  Q 145.77 408.51 145.16 408.30
  Q 144.20 407.97 143.47 408.66
  Q 141.09 410.92 140.58 411.97
  Q 139.98 413.22 138.92 412.33
  L 134.32 408.46
  Q 133.59 407.85 134.22 407.14
  Q 135.35 405.87 136.43 404.65
  C 139.30 401.43 143.95 401.54 147.37 403.94
  C 152.09 407.27 154.47 412.15 150.42 417.40
  Q 146.69 422.23 142.74 426.64
  C 140.59 429.05 137.57 430.08 134.47 428.88
  C 129.68 427.03 124.86 421.74 127.49 416.38
  Q 129.06 413.19 132.22 409.69
  Q 132.53 409.34 132.89 409.63
  L 140.34 415.74
  A 0.64 0.63 39.0 0 0 141.24 415.65
  Z
  M 137.5080 420.1703
  A 0.90 0.90 0.0 0 0 137.3706 418.9049
  L 136.9030 418.5290
  A 0.90 0.90 0.0 0 0 135.6376 418.6664
  L 133.4320 421.4097
  A 0.90 0.90 0.0 0 0 133.5694 422.6751
  L 134.0370 423.0510
  A 0.90 0.90 0.0 0 0 135.3024 422.9136
  L 137.5080 420.1703
  Z"
/>
<path fill="#ffffff" d="
  M 156.88 423.16
  L 145.70 436.93
  A 0.73 0.72 -53.4 0 1 144.74 437.08
  L 139.54 433.68
  Q 139.06 433.36 139.45 432.94
  L 157.04 413.25
  A 0.66 0.66 0.0 0 1 157.89 413.14
  L 166.02 418.50
  Q 166.46 418.80 166.24 419.28
  L 155.05 443.23
  Q 154.81 443.75 154.33 443.43
  L 149.04 439.92
  A 0.60 0.59 -59.0 0 1 148.85 439.14
  Q 153.24 430.98 157.14 423.33
  Q 157.81 422.01 156.88 423.16
  Z"
/>
<rect fill="#db6447" x="-1.18" y="-2.69" transform="translate(394.77,417.21) rotate(-42.0)" width="2.36" height="5.38" rx="0.95"/>
<rect fill="#db6447" x="-1.20" y="-2.66" transform="translate(135.47,420.79) rotate(38.8)" width="2.40" height="5.32" rx="0.90"/>
<rect fill="#ffffff" x="-4.27" y="-13.63" transform="translate(168.10,435.10) rotate(29.1)" width="8.54" height="27.26" rx="0.35"/>
<path fill="#ffffff" d="
  M 359.17 443.74
  L 362.74 454.67
  Q 362.82 454.92 362.59 455.04
  L 356.00 458.62
  A 0.18 0.18 0.0 0 1 355.74 458.50
  Q 353.81 449.69 352.04 440.57
  C 351.06 435.54 348.03 431.32 345.83 426.84
  Q 345.66 426.50 346.00 426.32
  L 352.28 422.96
  Q 352.58 422.81 352.74 423.10
  C 355.09 427.12 356.90 432.03 360.21 435.36
  Q 367.08 442.28 373.56 449.01
  A 0.17 0.16 54.4 0 1 373.52 449.27
  L 366.92 452.74
  Q 366.64 452.89 366.44 452.64
  L 359.39 443.62
  Q 358.95 443.06 359.17 443.74
  Z"
/>
<circle fill="#ffffff" cx="371.14" cy="430.80" r="4.35"/>
<path fill="#ffffff" d="
  M 170.66 451.39
  L 169.86 451.02
  Q 169.29 450.75 169.55 450.18
  L 170.79 447.49
  Q 171.10 446.80 171.77 447.17
  L 172.41 447.53
  Q 173.07 447.90 173.38 447.22
  L 180.28 432.43
  A 0.82 0.82 0.0 0 0 179.86 431.33
  L 178.88 430.92
  Q 178.26 430.66 178.55 430.05
  L 179.90 427.16
  A 0.65 0.65 0.0 0 1 180.77 426.85
  C 184.49 428.61 190.41 430.17 187.83 435.79
  Q 184.49 443.08 180.90 450.70
  Q 180.59 451.35 181.24 451.66
  L 181.53 451.80
  Q 182.19 452.12 181.90 452.79
  L 180.87 455.12
  Q 180.62 455.69 180.01 455.59
  L 179.09 455.45
  Q 178.64 455.38 178.46 455.80
  L 177.33 458.41
  Q 177.03 459.11 176.34 458.79
  L 170.08 455.87
  Q 169.54 455.61 169.78 455.06
  L 170.99 452.25
  Q 171.24 451.66 170.66 451.39
  Z"
/>
<path fill="#ffffff" d="
  M 351.0684 445.4050
  A 7.93 7.93 0.0 0 1 346.9400 455.8322
  L 344.1684 457.0315
  A 7.93 7.93 0.0 0 1 333.7412 452.9031
  L 328.9516 441.8350
  A 7.93 7.93 0.0 0 1 333.0800 431.4078
  L 335.8516 430.2085
  A 7.93 7.93 0.0 0 1 346.2788 434.3369
  L 351.0684 445.4050
  Z
  M 337.9317 435.7882
  A 1.17 1.17 0.0 0 0 336.3954 435.1738
  L 336.3403 435.1974
  A 1.17 1.17 0.0 0 0 335.7258 436.7337
  L 342.0683 451.5318
  A 1.17 1.17 0.0 0 0 343.6046 452.1462
  L 343.6597 452.1226
  A 1.17 1.17 0.0 0 0 344.2742 450.5863
  L 337.9317 435.7882
  Z"
/>
<path fill="#ffffff" d="
  M 199.33 436.65
  Q 199.42 436.82 199.58 436.83
  Q 199.78 436.84 199.94 436.73
  C 202.55 434.89 206.11 436.02 207.97 438.69
  C 209.43 440.77 207.75 445.25 206.65 447.69
  Q 205.36 450.52 202.51 450.62
  Q 198.99 450.74 195.56 451.09
  C 193.62 451.28 192.98 454.80 192.99 456.32
  Q 193.00 456.75 193.36 456.98
  Q 194.42 457.64 195.04 456.56
  Q 195.98 454.92 196.46 452.99
  Q 196.80 451.57 198.17 452.08
  L 203.23 453.93
  Q 204.26 454.31 203.95 455.37
  C 201.64 463.37 195.20 463.70 189.10 460.32
  Q 183.58 457.27 185.70 451.08
  Q 189.07 441.26 192.19 432.86
  Q 192.40 432.29 192.96 432.50
  L 199.38 434.81
  Q 199.96 435.02 199.84 435.63
  Q 199.77 435.99 199.42 436.23
  Q 199.18 436.40 199.33 436.65
  Z
  M 198.36 440.15
  L 196.06 446.44
  Q 195.74 447.32 196.62 447.01
  C 199.45 446.04 199.75 444.08 200.58 441.45
  Q 200.81 440.72 200.48 440.05
  A 1.16 1.15 42.2 0 0 198.36 440.15
  Z"
/>
<rect fill="#db6447" x="-1.20" y="-9.22" transform="translate(340.00,443.66) rotate(-23.2)" width="2.40" height="18.44" rx="1.17"/>
<path fill="#ffffff" d="
  M 314.78 439.72
  Q 315.77 437.58 318.03 436.74
  C 321.95 435.27 324.58 436.99 325.69 440.59
  Q 328.84 450.80 331.80 461.10
  Q 331.91 461.48 331.53 461.59
  L 324.46 463.68
  Q 324.02 463.81 323.89 463.38
  L 317.76 442.89
  A 0.95 0.95 0.0 0 0 317.01 442.23
  Q 316.52 442.14 316.07 442.37
  Q 315.16 442.84 315.45 443.82
  L 321.45 464.09
  Q 321.58 464.54 321.13 464.67
  L 314.26 466.71
  Q 313.64 466.90 313.46 466.28
  L 306.07 441.35
  Q 305.92 440.84 306.43 440.68
  L 313.30 438.60
  A 0.61 0.61 0.0 0 1 314.06 438.99
  L 314.29 439.69
  Q 314.50 440.33 314.78 439.72
  Z"
/>
<path fill="#db6447" d="
  M 198.36 440.15
  A 1.16 1.15 42.2 0 1 200.48 440.05
  Q 200.81 440.72 200.58 441.45
  C 199.75 444.08 199.45 446.04 196.62 447.01
  Q 195.74 447.32 196.06 446.44
  L 198.36 440.15
  Z"
/>
<path fill="#ffffff" d="
  M 218.49 454.47
  A 0.55 0.54 -77.1 0 0 219.15 454.05
  L 220.75 446.76
  A 0.74 0.73 17.9 0 0 220.31 445.92
  Q 218.49 445.16 217.92 446.95
  Q 217.31 448.86 216.99 450.91
  Q 216.78 452.21 215.51 451.90
  L 209.89 450.55
  Q 209.05 450.34 209.19 449.49
  C 210.20 443.47 213.53 439.51 220.16 440.86
  C 225.52 441.95 229.46 445.34 228.17 451.44
  Q 226.97 457.12 225.39 462.90
  C 224.24 467.13 221.07 469.15 216.65 468.75
  C 212.23 468.35 207.32 465.83 207.16 460.92
  Q 207.04 457.15 208.51 452.61
  Q 208.69 452.08 209.23 452.21
  L 218.49 454.47
  Z
  M 217.7593 459.4295
  A 0.72 0.72 0.0 0 0 217.2093 458.5726
  L 216.2713 458.3681
  A 0.72 0.72 0.0 0 0 215.4144 458.9182
  L 214.6007 462.6505
  A 0.72 0.72 0.0 0 0 215.1507 463.5074
  L 216.0887 463.7119
  A 0.72 0.72 0.0 0 0 216.9456 463.1618
  L 217.7593 459.4295
  Z"
/>
<path fill="#ffffff" d="
  M 298.58 468.35
  Q 298.40 467.38 298.00 468.29
  Q 296.94 470.76 294.58 471.75
  A 0.42 0.42 0.0 0 1 294.01 471.44
  L 292.50 463.24
  Q 292.34 462.40 293.19 462.24
  C 297.76 461.41 296.51 457.83 295.94 454.81
  Q 294.88 449.24 293.98 443.96
  Q 293.94 443.74 294.16 443.70
  L 301.80 442.32
  Q 302.03 442.28 302.07 442.51
  L 306.83 468.43
  Q 306.93 468.99 306.37 469.09
  L 299.25 470.40
  Q 298.60 470.52 298.66 469.86
  Q 298.72 469.09 298.58 468.35
  Z"
/>
<path fill="#ffffff" d="
  M 232.49 468.05
  Q 230.91 470.13 228.04 470.49
  Q 227.45 470.56 227.53 469.97
  L 228.71 461.62
  Q 228.79 461.00 229.41 460.99
  C 231.89 460.93 233.60 461.03 234.07 457.99
  Q 235.23 450.48 236.07 443.86
  Q 236.10 443.66 236.30 443.68
  L 244.00 444.79
  Q 244.29 444.84 244.25 445.12
  L 240.66 471.03
  Q 240.57 471.67 239.93 471.58
  L 232.96 470.65
  Q 232.35 470.57 232.48 469.96
  L 232.87 468.23
  Q 233.09 467.27 232.49 468.05
  Z"
/>
<path fill="#ffffff" d="
  M 255.01 473.68
  L 256.15 473.70
  Q 256.95 473.71 257.02 472.91
  Q 257.84 462.40 257.65 451.59
  Q 257.63 450.68 256.75 450.48
  Q 256.58 450.44 256.40 450.45
  Q 255.11 450.55 254.92 451.83
  Q 254.38 455.55 254.57 457.47
  Q 254.71 458.88 253.29 458.80
  L 246.95 458.44
  Q 245.90 458.38 245.92 457.33
  C 246.06 452.10 246.38 447.05 252.45 445.38
  Q 257.86 443.90 262.82 446.57
  C 266.05 448.32 266.42 452.24 266.37 455.61
  Q 266.23 465.10 265.63 472.16
  Q 265.43 474.60 263.61 476.52
  C 260.37 479.95 255.25 480.10 250.91 478.63
  Q 243.87 476.24 245.89 464.06
  Q 245.91 463.90 246.08 463.91
  L 254.17 464.32
  Q 254.35 464.33 254.34 464.50
  L 254.02 472.63
  Q 253.98 473.66 255.01 473.68
  Z"
/>
<rect fill="#ffffff" x="-4.27" y="-2.15" transform="translate(159.61,450.36) rotate(28.9)" width="8.54" height="4.30" rx="0.47"/>
<rect fill="#db6447" x="-1.20" y="-2.63" transform="translate(216.18,461.04) rotate(12.3)" width="2.40" height="5.26" rx="0.72"/>
<circle fill="#ffffff" cx="281.56" cy="462.78" r="4.34"/>
</svg>
