<?xml version="1.0" encoding="UTF-8"?>
<svg id="_レイヤー_2" data-name="レイヤー 2" xmlns="http://www.w3.org/2000/svg" viewBox="0 0 20.39 20.39">
  <defs>
    <style>
      .cls-1 {
        fill: #ff0;
        stroke: #404040;
        stroke-miterlimit: 10;
        stroke-width: 2px;
      }

      .cls-2 {
        fill: #404040;
        stroke-width: 0px;
      }
    </style>
  </defs>
  <g id="_レイヤー_1-2" data-name="レイヤー 1">
    <circle class="cls-1" cx="10.19" cy="10.19" r="9.19"/>
    <path class="cls-2" d="M5.57,9.78c-.19-.59-.29-.88-.3-.88l.59.13c1.58-.08,2.43-.13,2.55-.14.13.56.19.84.19.84-.54.13-1.26.34-2.15.61-.17.1-.37.2-.59.31,0,0-.11-.29-.3-.88ZM8.31,10.99c.07.17.14.32.23.46-.12.11-.34.44-.66,1.02-.38.68-.61,1.07-.68,1.16-.1.18-.2.37-.34.58,0,.01-.2-.25-.61-.77-.41-.53-.61-.79-.61-.8l.82-.24c.91-.66,1.54-1.13,1.86-1.4ZM6.86,6.29c.41.08,1.01.19,1.79.32l-.1,1.09c-.58-.06-1.27-.12-2.1-.18-.04-.49-.07-1.01-.12-1.52l.53.29ZM14.32,9.04h-2.11v1.32h.31s.32-.05,1.09-.12l.25,1.16h-1.64s0,1.2,0,1.2h1.29s.35-.1,1.04-.3v1.31h-4.62c-.1.02-.46.11-1.07.25l-.3-1.28h2.52s0-1.19,0-1.19h-.2c-.1.01-.42.07-1.13.18l-.28-1.18c.41-.01.9-.02,1.61-.02v-1.33s-.92,0-.92,0c-.11,0-.47.08-1.08.23v-1.34l.95.02c.44,0,.89.01,1.47.01l-.9-.74-.78-.44s.23-.16.62-.48c.41-.32.6-.49.6-.52.1.17.2.36.34.6.1.16.29.42.58.78.32.4.5.62.54.7,0,.02-.05.06-.12.12h.76s.4-.05,1.17-.16v1.22Z"/>
  </g>
</svg>